<svg width="256" height="139" viewBox="0 0 256 139" fill="none" xmlns="http://www.w3.org/2000/svg">
<g id="61779b485e784e9618620984_Grey%20Sugarcane.svg">
<path id="Vector" d="M68.7472 79.1058C73.1958 79.1058 77.0308 76.8112 77.0308 72.78C77.0308 63.8493 64.6361 68.1285 64.6361 61.4616C64.6361 59.694 65.7713 58.2676 68.103 58.2676C72.5822 58.2676 71.4471 63.7873 74.7605 63.7873C76.0797 63.7873 76.724 63.043 76.724 61.8647C76.7547 59.2909 73.3492 56.5 68.195 56.5C63.1328 56.5 60.0649 59.2289 60.0649 62.95C60.0956 72.1288 72.4902 67.6014 72.4902 74.2064C72.4902 76.098 71.0789 77.3383 68.9313 77.3383C63.7464 77.3383 64.5747 71.6946 61.5068 71.6326C60.249 71.6326 59.666 72.4389 59.666 73.5241C59.666 76.0049 62.918 79.1058 68.7472 79.1058ZM92.497 75.6328V64.2834C92.497 63.7563 92.1289 63.6322 91.3312 63.7253L87.4042 64.3144C87.036 64.3764 86.7906 64.6555 86.7906 64.9656V65.0586C86.7906 65.7409 88.0178 66.0509 88.0178 67.4154V73.7102C88.0178 75.9119 86.8519 77.3383 85.3793 77.3383C83.692 77.3383 82.8329 76.0049 82.8329 73.1211L82.9249 64.2834C82.9249 63.7563 82.4648 63.6322 81.6671 63.7253L77.8014 64.3144C77.4026 64.3764 77.1571 64.6555 77.1571 64.9656V65.0586C77.1571 65.7409 78.3537 66.0509 78.3537 67.4154V72.6559C78.3537 76.9043 80.9 79.1058 84.0601 79.1058C86.1771 79.1058 87.6803 78.3307 88.5086 76.9663C88.6007 78.4857 89.4904 78.9819 91.2392 78.9819C92.9573 78.9819 93.9696 78.7958 93.9696 78.0826C93.9696 76.9353 92.497 78.0826 92.497 75.6328ZM107.529 63.9113C104.4 63.9113 103.387 63.6012 101.424 63.6012C97.1284 63.6012 94.1525 66.237 94.1525 70.1131C94.1525 73.6482 97.2205 76.253 101.332 76.253C101.73 76.253 102.129 76.222 102.528 76.191C103.725 76.4391 104.43 77.4934 104.43 79.0439C104.43 80.7804 103.234 81.9587 101.332 81.9587C97.742 81.8967 98.417 77.2453 95.9012 77.2453C94.6434 77.2453 94.0911 78.1136 94.0911 78.9819C94.0911 81.4005 96.7296 83.2611 101.24 83.2611C105.596 83.2611 108.94 81.5556 108.94 78.9199C108.94 77.2763 107.989 76.0049 105.259 75.3847C107.376 74.3614 108.695 72.4389 108.695 69.9891C108.695 68.5007 107.958 67.0432 106.977 66.0199C107.928 65.7409 109.094 65.8648 109.308 64.8416C109.492 64.2834 109.186 63.9113 107.529 63.9113ZM98.4784 68.0665C98.4784 66.1749 99.3374 64.9656 100.749 64.9656C102.896 64.9656 104.338 68.7798 104.338 71.7566C104.338 73.5862 103.479 74.8576 102.007 74.8576C100.074 74.8576 98.4784 71.3536 98.4784 68.0665ZM123.663 75.6948L122.988 69.9581C122.558 66.0509 119.858 63.6012 115.87 63.6012C112.679 63.6012 109.979 64.9036 109.979 67.1363C109.979 68.1906 110.716 68.8728 111.82 68.8728C114.121 68.8728 113.416 64.9036 115.87 64.9036C117.741 64.9036 118.232 66.6401 118.6 70.2682L118.631 70.6403C117.834 70.0821 116.698 69.71 115.287 69.71C112.28 69.71 109.703 71.3226 109.734 74.4235C109.734 77.5244 112.188 79.1058 115.502 79.1058C117.619 79.1058 118.907 78.3307 119.582 77.3073C119.766 78.6408 120.564 78.9819 122.313 78.9819C123.785 78.9819 125.258 78.7958 125.258 78.0826C125.258 77.2453 123.908 77.8345 123.663 75.6948ZM116.852 77.7414C115.287 77.7414 114.275 75.8499 114.275 73.7102C114.275 72.1288 115.226 71.1055 116.514 71.1055C117.772 71.1055 118.754 72.0357 118.938 73.8653L119.03 74.9507C119.122 76.3461 118.263 77.7414 116.852 77.7414ZM134.374 63.6012C132.318 63.6012 130.877 64.6865 130.202 66.6711V64.3454C130.202 63.7563 129.925 63.3841 129.22 63.7253L125.538 65.4618C125.139 65.6479 124.894 65.8958 124.894 66.2059V66.33C124.894 67.1053 126.305 67.1983 126.305 68.5627V75.8189C126.305 77.1213 125.109 77.3693 125.109 78.1446V78.2686C125.109 78.6098 125.385 78.7958 125.814 78.7958H131.49C131.889 78.7958 132.165 78.6098 132.165 78.2686V78.1446C132.165 77.3693 130.631 77.1213 130.631 75.8189V69.6171C130.631 67.9115 131.061 66.2059 132.257 66.2059C133.914 66.2059 132.84 68.8728 135.233 68.8728C136.706 68.8728 137.196 67.7255 137.196 66.423C137.196 64.8416 136.184 63.6012 134.374 63.6012ZM144.341 79.1058C148.33 79.1058 150.416 76.5941 150.6 74.0513C150.661 73.3692 149.894 73.2452 149.526 73.7412C148.882 74.8576 147.716 75.9119 145.844 75.9119C142.715 75.9119 140.629 73.2141 140.629 69.0899C140.629 66.7952 141.734 64.9656 143.482 64.9656C146.151 64.9346 145.967 69.338 148.606 69.493C150.017 69.555 150.508 68.7488 150.508 67.9425C150.508 65.5238 147.685 63.5702 144.156 63.6012C140.015 63.6322 136.426 66.5471 136.426 71.3226C136.426 75.5088 139.708 79.1058 144.341 79.1058ZM164.892 75.6948L164.218 69.9581C163.788 66.0509 161.088 63.6012 157.1 63.6012C153.909 63.6012 151.209 64.9036 151.209 67.1363C151.209 68.1906 151.945 68.8728 153.05 68.8728C155.351 68.8728 154.645 64.9036 157.1 64.9036C158.971 64.9036 159.462 66.6401 159.83 70.2682L159.861 70.6403C159.063 70.0821 157.927 69.71 156.517 69.71C153.51 69.71 150.933 71.3226 150.963 74.4235C150.963 77.5244 153.418 79.1058 156.732 79.1058C158.848 79.1058 160.136 78.3307 160.812 77.3073C160.996 78.6408 161.794 78.9819 163.542 78.9819C165.015 78.9819 166.488 78.7958 166.488 78.0826C166.488 77.2453 165.138 77.8345 164.892 75.6948ZM158.081 77.7414C156.517 77.7414 155.505 75.8499 155.505 73.7102C155.505 72.1288 156.456 71.1055 157.744 71.1055C159.002 71.1055 159.983 72.0357 160.168 73.8653L160.26 74.9507C160.351 76.3461 159.492 77.7414 158.081 77.7414ZM182.169 75.7879L181.801 70.2062C181.433 65.2757 178.733 63.6012 175.941 63.6012C173.855 63.6012 172.229 64.5315 171.401 66.1129V64.3764C171.401 63.7873 171.063 63.3531 170.357 63.7253L166.707 65.5238C166.338 65.7099 166.093 65.8648 166.093 66.1749V66.299C166.093 67.0743 167.596 67.1983 167.596 68.5937V75.8189C167.596 77.1523 166.277 77.4003 166.277 78.1756V78.2996C166.277 78.6098 166.553 78.8268 166.982 78.8268H172.689C173.118 78.8268 173.395 78.6098 173.395 78.2996V78.1756C173.395 77.4003 172.076 77.1523 172.076 75.8189V68.7798C172.076 66.7641 173.027 65.3688 174.683 65.3688C176.31 65.3688 177.2 66.7331 177.353 70.0511L177.659 75.7879C177.721 77.1523 176.555 77.4003 176.555 78.1756V78.2996C176.555 78.6098 176.831 78.8268 177.261 78.8268H182.568C182.998 78.8268 183.274 78.6098 183.274 78.2996V78.1756C183.274 77.4003 182.262 77.1523 182.169 75.7879ZM195.931 74.0823C195.348 75.0437 194.059 75.8809 192.433 75.8809C190.593 75.8809 189.182 74.8886 188.384 73.1831L195.195 70.0511C196.023 69.679 196.544 69.0589 196.544 68.0045C196.544 65.9579 194.766 63.6012 190.746 63.6012C186.727 63.6012 183.322 66.7331 183.322 71.2295C183.322 76.0049 186.482 79.1058 190.746 79.1058C194.703 79.1058 196.79 76.222 196.974 74.4235C197.005 73.7722 196.299 73.6172 195.931 74.0823ZM190.194 64.9656C191.85 64.9656 192.649 67.1673 192.649 68.2836C192.649 68.9348 192.403 69.462 191.85 69.741L187.892 71.7566C187.678 70.9504 187.586 70.0511 187.586 69.0899C187.586 66.7331 188.568 64.9656 190.194 64.9656Z" fill="#67718E"/>
</g>
</svg>
