<svg width="256" height="64" viewBox="0 0 256 64" fill="none" xmlns="http://www.w3.org/2000/svg">
<g id="61779b485e784ed48762098d_Stamps%20Testimonial.svg">
<path id="Vector" d="M99.9728 34.3499L102.828 33.5619C102.875 34.1973 103.169 34.788 103.646 35.2056C104.204 35.6737 104.917 35.9114 105.641 35.871C106.181 35.9021 106.717 35.7545 107.166 35.4508C107.335 35.3371 107.474 35.1833 107.57 35.0029C107.666 34.8224 107.717 34.6209 107.718 34.416C107.719 34.2461 107.683 34.0781 107.612 33.924C107.541 33.77 107.437 33.6335 107.308 33.5245C106.956 33.2434 106.536 33.063 106.091 33.0023L104.041 32.5374C102.987 32.3413 102.023 31.8096 101.29 31.0204C100.655 30.3035 100.312 29.372 100.327 28.4111C100.326 27.8112 100.459 27.2188 100.714 26.6771C100.969 26.1355 101.341 25.6583 101.803 25.2804C102.802 24.4038 104.09 23.9377 105.413 23.9742C106.086 23.9665 106.755 24.0602 107.4 24.252C107.918 24.3997 108.409 24.6311 108.854 24.9373C109.22 25.2033 109.545 25.5234 109.816 25.887C110.056 26.1972 110.256 26.5369 110.411 26.8979C110.533 27.1961 110.62 27.5079 110.67 27.8267L107.957 28.6148C107.927 28.3885 107.861 28.1686 107.763 27.9629C107.65 27.7268 107.506 27.5072 107.335 27.3102C107.123 27.0736 106.857 26.892 106.561 26.7808C106.195 26.6387 105.805 26.5695 105.413 26.5771C104.897 26.558 104.391 26.7247 103.985 27.0476C103.811 27.1771 103.669 27.3456 103.571 27.5399C103.472 27.7343 103.42 27.9492 103.418 28.1675C103.416 28.3402 103.449 28.5114 103.514 28.6707C103.58 28.8301 103.678 28.9741 103.801 29.094C104.083 29.3655 104.441 29.5437 104.826 29.6051L106.915 30.0389C108.005 30.2194 109.013 30.7353 109.801 31.5162C110.46 32.2058 110.821 33.1309 110.805 34.0888C110.805 34.6659 110.694 35.2373 110.478 35.7716C110.254 36.3235 109.935 36.8311 109.536 37.2712C109.084 37.7564 108.529 38.133 107.914 38.3729C107.198 38.6605 106.433 38.803 105.663 38.7923C104.797 38.8061 103.936 38.6531 103.127 38.3418C102.458 38.0948 101.854 37.6983 101.359 37.1821C100.963 36.759 100.631 36.2787 100.375 35.7572C100.161 35.3152 100.025 34.839 99.9728 34.3499Z" fill="#061237"/>
<path id="Vector_2" d="M110.813 27.335V24.4105H111.522C111.816 24.4318 112.11 24.3888 112.385 24.2844C112.661 24.1799 112.91 24.0166 113.117 23.8055C113.491 23.3635 113.684 22.7942 113.657 22.2136V20.1011H116.637V24.4105H119.506V27.335H116.637V33.843C116.615 34.0845 116.641 34.328 116.714 34.5592C116.786 34.7904 116.904 35.0045 117.06 35.189C117.436 35.4987 117.917 35.6478 118.4 35.6045C118.782 35.6053 119.163 35.5675 119.537 35.4915V38.2233C118.887 38.4564 118.198 38.5602 117.509 38.5289C116.954 38.5598 116.399 38.4776 115.876 38.2872C115.353 38.0968 114.874 37.8023 114.467 37.421C114.085 37.0148 113.789 36.5338 113.598 36.0079C113.407 35.482 113.324 34.922 113.356 34.3627V27.335H110.813Z" fill="#061237"/>
<path id="Vector_3" d="M120.323 34.6155C120.299 34.0801 120.39 33.5458 120.588 33.0488C120.787 32.5518 121.089 32.1037 121.474 31.7348C122.319 30.9799 123.374 30.5051 124.496 30.3744L128.044 29.8283C128.727 29.7413 129.069 29.4274 129.069 28.8866C129.076 28.6133 129.021 28.3421 128.907 28.0937C128.794 27.8453 128.626 27.6264 128.416 27.4539C127.848 27.0418 127.154 26.8445 126.457 26.8967C125.727 26.8589 125.012 27.1092 124.463 27.5948C123.967 28.0588 123.662 28.6936 123.608 29.3738L120.612 28.7028C120.674 28.0539 120.863 27.4238 121.167 26.8487C121.471 26.2735 121.884 25.7645 122.383 25.3509C123.512 24.4049 124.948 23.9138 126.413 23.9722C127.342 23.9551 128.266 24.1014 129.145 24.4045C129.852 24.6428 130.491 25.0509 131.007 25.5937C131.457 26.0844 131.802 26.6627 132.023 27.2931C132.248 27.9534 132.359 28.6478 132.352 29.346V36.1191C132.341 36.8689 132.401 37.6183 132.532 38.3566H129.419C129.285 37.7743 129.232 37.1761 129.261 36.5791C128.846 37.2288 128.281 37.7667 127.614 38.1465C126.815 38.5964 125.91 38.8189 124.996 38.7904C123.753 38.8457 122.538 38.4045 121.615 37.5622C121.204 37.1922 120.876 36.7379 120.653 36.2297C120.431 35.7215 120.318 35.1711 120.323 34.6155ZM123.608 34.3766C123.604 34.6155 123.649 34.8525 123.741 35.0725C123.833 35.2926 123.97 35.4907 124.143 35.6542C124.343 35.8358 124.577 35.9756 124.831 36.0654C125.085 36.1554 125.355 36.1936 125.623 36.1779C126.07 36.1831 126.515 36.1192 126.943 35.9885C127.339 35.8635 127.71 35.6642 128.034 35.401C128.384 35.1045 128.648 34.7177 128.798 34.2819C128.99 33.7315 129.082 33.1507 129.069 32.5674V31.9377L125.466 32.4949C124.968 32.5602 124.499 32.7713 124.118 33.1023C123.947 33.2644 123.813 33.4621 123.725 33.6817C123.637 33.9013 123.597 34.1375 123.608 34.3742V34.3766Z" fill="#061237"/>
<path id="Vector_4" d="M134.573 38.3592V24.4086H137.748V26.1471C138.14 25.4544 138.737 24.9023 139.454 24.5671C140.191 24.1969 141.002 24.004 141.825 24.0035C142.705 23.9873 143.574 24.2 144.348 24.6211C145.08 25.0231 145.661 25.655 146.004 26.4208C146.458 25.6416 147.117 25.0038 147.906 24.5773C148.696 24.1509 149.586 23.9524 150.48 24.0035C151.089 23.9989 151.694 24.1054 152.265 24.3179C152.826 24.5304 153.341 24.8486 153.785 25.2555C154.273 25.7177 154.646 26.2908 154.87 26.9272C155.149 27.6884 155.284 28.4951 155.271 29.3063V38.3592H152.18V29.8103C152.218 29.0538 151.983 28.3091 151.517 27.7151C151.265 27.4416 150.955 27.2288 150.611 27.0923C150.266 26.956 149.895 26.8995 149.526 26.9272C149.138 26.9137 148.752 26.9868 148.394 27.1411C148.037 27.2954 147.718 27.5274 147.46 27.8202C146.924 28.4285 146.639 29.221 146.664 30.0346V38.3592H143.38V29.8103C143.415 29.0573 143.182 28.3166 142.723 27.7223C142.472 27.4454 142.161 27.2298 141.815 27.0919C141.469 26.954 141.096 26.8974 140.726 26.9264C140.336 26.9102 139.949 26.9802 139.588 27.1315C139.229 27.2827 138.907 27.5116 138.644 27.8019C138.11 28.4187 137.831 29.2185 137.863 30.037V38.3615L134.573 38.3592Z" fill="#061237"/>
<path id="Vector_5" d="M157.637 43.8043V24.4084H160.839V26.2775C161.243 25.5976 161.834 25.0509 162.54 24.7037C163.371 24.2794 164.291 24.0676 165.221 24.0869C166.103 24.044 166.983 24.2049 167.794 24.5572C168.605 24.9094 169.326 25.4439 169.901 26.1198C171.08 27.6011 171.685 29.4641 171.605 31.3622C171.68 33.2837 171.046 35.1649 169.825 36.6413C169.243 37.3209 168.517 37.8598 167.701 38.218C166.884 38.5763 165.999 38.7447 165.11 38.7107C164.239 38.7277 163.376 38.5431 162.586 38.1711C161.923 37.8674 161.348 37.3942 160.92 36.798V43.8027L157.637 43.8043ZM160.894 31.3646C160.84 32.5249 161.209 33.665 161.931 34.5685C162.257 34.9617 162.666 35.2756 163.128 35.4866C163.59 35.6975 164.094 35.8 164.601 35.7864C165.11 35.8009 165.615 35.6996 166.079 35.49C166.543 35.2804 166.954 34.9679 167.282 34.5756C168.008 33.6705 168.377 32.5273 168.32 31.3646C168.374 30.221 168.007 29.0976 167.289 28.2109C166.958 27.8211 166.544 27.5115 166.078 27.3048C165.613 27.0982 165.107 26.9997 164.598 27.0169C164.093 27.0028 163.589 27.1036 163.127 27.312C162.666 27.5205 162.255 27.8313 161.929 28.2212C161.211 29.1031 160.842 30.2221 160.894 31.3622V31.3646Z" fill="#061237"/>
<path id="Vector_6" d="M171.844 34.3499L174.7 33.5619C174.747 34.1973 175.041 34.788 175.517 35.2056C176.076 35.6738 176.789 35.9115 177.514 35.871C178.053 35.9019 178.589 35.7544 179.038 35.4508C179.207 35.3371 179.345 35.1833 179.442 35.0029C179.539 34.8224 179.59 34.6209 179.59 34.416C179.591 34.2461 179.554 34.0781 179.484 33.924C179.413 33.7699 179.309 33.6335 179.18 33.5245C178.829 33.2434 178.408 33.0629 177.964 33.0023L175.914 32.5374C174.86 32.3414 173.896 31.8097 173.164 31.0204C172.529 30.3039 172.184 29.3722 172.199 28.4111C172.199 27.8112 172.332 27.2188 172.587 26.6771C172.842 26.1355 173.214 25.6583 173.676 25.2804C174.675 24.4038 175.963 23.9377 177.286 23.9742C177.959 23.9665 178.628 24.0602 179.273 24.252C179.791 24.3995 180.282 24.631 180.727 24.9373C181.093 25.2035 181.418 25.5236 181.69 25.887C181.929 26.1974 182.128 26.5371 182.284 26.8979C182.406 27.1961 182.493 27.5079 182.543 27.8267L179.83 28.6148C179.8 28.3886 179.734 28.1686 179.637 27.9629C179.524 27.7269 179.379 27.5074 179.207 27.3102C178.995 27.0736 178.73 26.892 178.434 26.7808C178.068 26.6386 177.678 26.5694 177.286 26.5771C176.77 26.558 176.265 26.7248 175.859 27.0476C175.685 27.1769 175.543 27.3455 175.444 27.5399C175.345 27.7342 175.292 27.9491 175.291 28.1675C175.289 28.3402 175.321 28.5114 175.387 28.6707C175.453 28.8301 175.551 28.9741 175.674 29.094C175.956 29.3653 176.314 29.5436 176.698 29.6051L178.787 30.0389C179.877 30.2192 180.886 30.7352 181.674 31.5162C182.332 32.2061 182.693 33.1311 182.677 34.0888C182.677 34.6659 182.566 35.2375 182.35 35.7716C182.126 36.3236 181.807 36.8314 181.408 37.2712C180.956 37.7565 180.402 38.1329 179.785 38.3729C179.07 38.6605 178.306 38.803 177.535 38.7923C176.669 38.8061 175.808 38.6532 174.999 38.3418C174.331 38.0946 173.727 37.6981 173.232 37.1821C172.836 36.759 172.504 36.2787 172.248 35.7572C172.034 35.3151 171.898 34.839 171.844 34.3499Z" fill="#061237"/>
<path id="Vector_7" d="M76.1198 24.1542C76.1341 24.1161 76.1444 24.0767 76.1505 24.0364C76.2502 23.3205 76.6151 22.6694 77.1716 22.2144C77.5658 21.8972 78.0372 21.6929 78.5365 21.6229C78.5695 21.6179 78.602 21.6097 78.6334 21.5982C78.7314 21.588 78.8299 21.583 78.9283 21.5832C79.6082 21.5792 80.266 21.8264 80.7778 22.2783C81.2895 22.7303 81.6197 23.3556 81.7061 24.0364C81.7154 24.1443 81.7647 24.2448 81.8443 24.3174C81.9238 24.3901 82.0277 24.4296 82.1351 24.428H82.2368C82.3442 24.4299 82.4483 24.3906 82.528 24.3178C82.6077 24.2451 82.6569 24.1445 82.6658 24.0364C82.7484 23.3572 83.075 22.7324 83.5837 22.2802C84.0923 21.828 84.7477 21.58 85.4254 21.5832C86.1053 21.5792 86.7631 21.8264 87.2748 22.2783C87.7866 22.7303 88.1168 23.3556 88.2032 24.0364C88.2123 24.1443 88.2617 24.2448 88.3414 24.3174C88.4209 24.3901 88.5248 24.4296 88.6321 24.428H88.711C88.8184 24.4299 88.9226 24.3906 89.0022 24.3178C89.0819 24.2451 89.1311 24.1445 89.1399 24.0364C89.2258 23.3586 89.5534 22.7358 90.0614 22.2842C90.5693 21.8327 91.2228 21.5834 91.8996 21.5832C92.6309 21.5831 93.3333 21.8722 93.8558 22.3887C94.3684 22.9173 94.6552 23.6278 94.6545 24.3675C94.6546 25.051 94.4078 25.711 93.9602 26.2239C93.5127 26.7368 92.8953 27.0673 92.2237 27.1535C92.1167 27.1623 92.0169 27.212 91.9449 27.2925C91.8728 27.373 91.8338 27.4781 91.8357 27.5865V27.6661C91.8341 27.7745 91.8733 27.8793 91.9453 27.9597C92.0173 28.04 92.1167 28.0898 92.2237 28.0991C92.8981 28.186 93.5178 28.5191 93.9656 29.0356C94.4135 29.5521 94.6585 30.2162 94.6545 30.9026C94.6577 31.5869 94.4119 32.2486 93.9638 32.7621C93.5157 33.2757 92.8965 33.6053 92.2237 33.6885C92.1167 33.6974 92.0169 33.7471 91.9449 33.8276C91.8728 33.908 91.8338 34.0132 91.8357 34.1215V34.225C91.8343 34.3333 91.8736 34.4382 91.9455 34.5184C92.0175 34.5987 92.1168 34.6486 92.2237 34.658C92.8981 34.7449 93.5178 35.0781 93.9656 35.5946C94.4135 36.111 94.6585 36.7751 94.6545 37.4615C94.6545 37.5538 94.6499 37.6446 94.6412 37.7346C94.6266 37.7726 94.616 37.8121 94.6097 37.8524C94.5106 38.5683 94.146 39.2196 93.5893 39.6744C93.1948 39.9916 92.7232 40.1959 92.2237 40.2658C92.191 40.271 92.1589 40.279 92.1275 40.2897C92.0293 40.3002 91.9306 40.3056 91.8319 40.3056C91.152 40.3096 90.4943 40.0623 89.9827 39.6104C89.4711 39.1584 89.1411 38.5331 89.0548 37.8524C89.0456 37.7444 88.9962 37.644 88.9167 37.5713C88.8371 37.4986 88.7331 37.4591 88.6258 37.4607H88.5233C88.4159 37.4588 88.3119 37.4982 88.2321 37.5709C88.1525 37.6437 88.1032 37.7442 88.0944 37.8524C88.0119 38.5315 87.6853 39.1566 87.1767 39.6088C86.668 40.061 86.0125 40.3089 85.3348 40.3056C84.6548 40.3096 83.9971 40.0623 83.4853 39.6104C82.9736 39.1584 82.6434 38.5332 82.557 37.8524C82.5477 37.7444 82.4984 37.644 82.4188 37.5713C82.3392 37.4986 82.2353 37.4591 82.128 37.4607H82.0492C81.9418 37.4588 81.8376 37.4982 81.7579 37.5709C81.6783 37.6437 81.629 37.7442 81.6202 37.8524C81.5346 38.5303 81.2071 39.1533 80.6992 39.6049C80.1911 40.0566 79.5375 40.3057 78.8605 40.3056C78.1276 40.3066 77.4236 40.0173 76.8995 39.5C76.3873 38.9712 76.1008 38.2609 76.1016 37.5213C76.1016 36.8379 76.3483 36.178 76.7957 35.6651C77.243 35.1523 77.8602 34.8216 78.5317 34.7353C78.6389 34.7266 78.7388 34.6769 78.8111 34.5965C78.8833 34.516 78.9224 34.4108 78.9204 34.3023V34.2226C78.9218 34.1143 78.8825 34.0093 78.8104 33.929C78.7383 33.8487 78.6387 33.7989 78.5317 33.7896C77.8574 33.7026 77.238 33.3693 76.7903 32.8529C76.3427 32.3365 76.0976 31.6724 76.1016 30.9862C76.0983 30.3019 76.344 29.6402 76.7919 29.1267C77.2399 28.6131 77.8589 28.2834 78.5317 28.2002C78.6389 28.1915 78.7388 28.1419 78.8111 28.0614C78.8833 27.981 78.9224 27.8757 78.9204 27.7672V27.6637C78.9218 27.5553 78.8825 27.4504 78.8104 27.37C78.7383 27.2897 78.6387 27.2399 78.5317 27.2307C77.8574 27.1436 77.238 26.8104 76.7903 26.2939C76.3427 25.7775 76.0976 25.1134 76.1016 24.4272C76.1016 24.3349 76.1063 24.2442 76.115 24.1542H76.1198ZM78.5388 20.7132C78.5047 20.7042 78.4699 20.6981 78.4348 20.6948C77.5052 20.8256 76.6587 21.3058 76.0646 22.0392C75.6158 22.5789 75.3273 23.2356 75.232 23.9337C75.2343 23.964 75.239 23.9941 75.2461 24.0237C75.2341 24.1439 75.228 24.2648 75.228 24.3858C75.2337 25.057 75.4165 25.7145 75.7575 26.2907C76.0986 26.8667 76.5857 27.3407 77.1685 27.6637C76.5855 27.9868 76.0984 28.4609 75.7573 29.0371C75.4163 29.6134 75.2336 30.2711 75.228 30.9424C75.2337 31.6136 75.4165 32.271 75.7575 32.8471C76.0986 33.4233 76.5857 33.8973 77.1685 34.2202C76.5821 34.5392 76.0921 35.0123 75.7505 35.5895C75.4089 36.1667 75.2283 36.8265 75.228 37.4989C75.228 37.6032 75.2327 37.7059 75.2406 37.8086C75.2293 37.856 75.2257 37.9049 75.2296 37.9535C75.3379 38.7729 75.7116 39.5333 76.2924 40.1161C76.8698 40.7025 77.6229 41.0798 78.4348 41.1891C78.4832 41.1931 78.5318 41.1894 78.5791 41.178C78.68 41.1867 78.7824 41.1907 78.8857 41.1907C79.5517 41.1905 80.2052 41.0082 80.7769 40.6634C81.3485 40.3184 81.8171 39.8237 82.1327 39.2318C82.4525 39.8203 82.9219 40.312 83.4927 40.6564C84.0635 41.0007 84.7148 41.1851 85.3796 41.1907C86.0446 41.1853 86.6962 41.0009 87.2671 40.6565C87.838 40.3122 88.3075 39.8204 88.6274 39.2318C88.9472 39.8203 89.4167 40.312 89.9874 40.6564C90.5582 41.0007 91.2095 41.1851 91.8744 41.1907C91.9919 41.1907 92.1109 41.1851 92.2229 41.174C92.2573 41.1831 92.2924 41.189 92.3278 41.1915C93.2558 41.0606 94.1006 40.5807 94.6932 39.8479C95.1422 39.3083 95.4312 38.6516 95.5266 37.9535C95.5242 37.9231 95.5195 37.8931 95.5125 37.8635C95.5242 37.7441 95.5298 37.6248 95.5298 37.5014C95.5242 36.8302 95.3417 36.1727 95.0006 35.5966C94.6597 35.0205 94.1728 34.5465 93.5901 34.2234C94.1729 33.9003 94.6599 33.4262 95.0009 32.85C95.3418 32.2736 95.5244 31.616 95.5298 30.9448C95.5242 30.2736 95.3417 29.6162 95.0006 29.0401C94.6597 28.4639 94.1728 27.9899 93.5901 27.6669C94.1763 27.3478 94.6662 26.8747 95.0077 26.2975C95.3491 25.7202 95.5295 25.0605 95.5298 24.3882C95.5298 24.2839 95.5258 24.1804 95.5179 24.0785C95.5285 24.031 95.5321 23.9823 95.529 23.9337C95.421 23.1139 95.0469 22.3534 94.4654 21.771C93.8886 21.1843 93.1355 20.807 92.3238 20.698C92.2754 20.694 92.2267 20.6977 92.1795 20.7092C92.0786 20.7004 91.9761 20.6964 91.8728 20.6964C91.2068 20.6966 90.5534 20.8789 89.9817 21.2238C89.4101 21.5687 88.9415 22.0634 88.6258 22.6554C88.306 22.0667 87.8364 21.5749 87.2655 21.2306C86.6946 20.8863 86.0431 20.7019 85.3781 20.6964C84.7133 20.702 84.0619 20.8864 83.4911 21.2308C82.9204 21.5751 82.451 22.0668 82.1311 22.6554C81.8113 22.0667 81.3417 21.5749 80.7708 21.2306C80.1999 20.8863 79.5483 20.7019 78.8834 20.6964C78.7659 20.6964 78.6469 20.702 78.5349 20.7132H78.5388Z" fill="#061237"/>
<path id="Vector_8" d="M92.3483 41.8913L92.2758 41.8857C92.2458 41.8857 92.2151 41.8794 92.1852 41.8754C92.0827 41.8825 91.9786 41.8865 91.8752 41.8865C91.0753 41.8854 90.2914 41.6608 89.6099 41.2378C89.2472 41.0137 88.9177 40.7387 88.6314 40.4211C88.2194 40.8791 87.7177 41.2457 87.1582 41.4979C86.5986 41.7502 85.9933 41.8825 85.3805 41.8865C84.5806 41.8854 83.7966 41.6608 83.1152 41.2378C82.7536 41.0141 82.425 40.74 82.1391 40.4235C81.8556 40.7406 81.5285 41.0148 81.1677 41.2378C80.4811 41.6621 79.6917 41.8865 78.8866 41.8865C78.7952 41.8865 78.703 41.8865 78.6115 41.8778C78.5356 41.8873 78.459 41.8889 78.3828 41.8825H78.3631H78.3434C77.8595 41.817 77.3898 41.671 76.9533 41.4503C76.529 41.2353 76.1422 40.9523 75.8077 40.6122C75.4708 40.2747 75.1906 39.8841 74.9782 39.4556C74.7589 39.0152 74.6139 38.5409 74.5492 38.0523V38.0323V38.0125C74.5437 37.9355 74.5453 37.8583 74.554 37.7817C74.5485 37.6894 74.5461 37.5962 74.5461 37.5046C74.5457 36.692 74.7678 35.8951 75.1879 35.2018C75.4086 34.837 75.6806 34.5064 75.9952 34.2204C75.6812 33.9322 75.4094 33.6004 75.1879 33.2349C74.7692 32.547 74.547 31.7556 74.5461 30.9481C74.55 30.3295 74.681 29.7185 74.9307 29.1536C75.1804 28.5888 75.5435 28.0823 75.9968 27.6662C75.6822 27.3772 75.4099 27.0447 75.1879 26.6784C74.7692 25.9904 74.547 25.199 74.5461 24.3915C74.5461 24.2809 74.55 24.1694 74.5586 24.0588C74.5555 24.0365 74.5531 24.0142 74.5515 23.992L74.5461 23.9187L74.5555 23.8454C74.668 23.019 75.0093 22.2415 75.5403 21.6024C76.2427 20.7326 77.2454 20.1638 78.3465 20.0104L78.419 20L78.4924 20.0056C78.5224 20.0056 78.5524 20.012 78.5823 20.016C78.6856 20.0088 78.7897 20.0048 78.8921 20.0048C79.6923 20.0062 80.4765 20.2307 81.1582 20.6536C81.5207 20.8777 81.85 21.1527 82.1359 21.4702C82.548 21.0124 83.0496 20.6457 83.6092 20.3934C84.1687 20.1412 84.7741 20.0089 85.3868 20.0048C86.187 20.0062 86.9712 20.2307 87.6529 20.6536C88.0147 20.8774 88.3432 21.1515 88.6291 21.4678C88.9125 21.1508 89.2397 20.8766 89.6005 20.6536C90.2871 20.2293 91.0765 20.0047 91.8815 20.0048C91.9731 20.0048 92.0653 20.0048 92.156 20.0136C92.232 20.004 92.309 20.0024 92.3854 20.0088H92.4044H92.424C92.9079 20.0742 93.3777 20.2202 93.8142 20.441C94.2388 20.6558 94.626 20.9389 94.9606 21.2792C95.2978 21.6163 95.5781 22.0071 95.7901 22.4357C96.0087 22.8764 96.1535 23.3506 96.2182 23.8391V23.859V23.8789C96.2238 23.9558 96.2221 24.0331 96.2127 24.1098C96.2182 24.2021 96.2214 24.2944 96.2214 24.3867C96.2215 25.1994 95.9991 25.9964 95.5788 26.6895C95.3583 27.0544 95.0866 27.3849 94.7721 27.6709C95.0862 27.959 95.3577 28.2909 95.5788 28.6564C95.9978 29.3442 96.2202 30.1358 96.2214 30.9433C96.2174 31.562 96.0864 32.173 95.8365 32.7379C95.5867 33.3028 95.2234 33.8092 94.7698 34.2252C95.0844 34.5138 95.3568 34.8461 95.5788 35.2122C95.9976 35.9004 96.22 36.6921 96.2214 37.4998C96.2214 37.6105 96.2174 37.7219 96.2087 37.8318C96.2087 37.8541 96.2143 37.8772 96.2158 37.8995L96.2214 37.9727L96.2111 38.0459C96.099 38.8722 95.7579 39.6498 95.2271 40.289C94.5246 41.1589 93.5215 41.7278 92.4201 41.8809L92.3483 41.8913ZM89.7401 37.7713C89.8058 38.2836 90.0552 38.7537 90.4411 39.0927C90.827 39.4319 91.3226 39.6165 91.8343 39.6116C91.8902 39.6116 91.9455 39.6117 92.0006 39.6053C92.0377 39.5957 92.0748 39.5877 92.1126 39.5814H92.1331C92.5081 39.5283 92.8621 39.3747 93.1581 39.1364C93.5784 38.7935 93.8539 38.302 93.9285 37.7617V37.7418C93.9362 37.6946 93.9465 37.6478 93.9592 37.6017C93.9592 37.5564 93.964 37.5102 93.964 37.4649C93.9686 36.9482 93.7856 36.4477 93.4496 36.058C93.1135 35.6683 92.6477 35.4164 92.1402 35.3499C91.866 35.321 91.6123 35.1903 91.4283 34.9829C91.2444 34.7756 91.1435 34.5067 91.1452 34.2283V34.1249C91.143 33.8524 91.2397 33.5886 91.4171 33.3833C91.5945 33.1779 91.8402 33.0453 92.1079 33.0104H92.1276H92.1481C92.651 32.9442 93.1126 32.695 93.4465 32.3095C93.7804 31.9242 93.9635 31.429 93.9616 30.917C93.9663 30.4004 93.7832 29.8999 93.4472 29.5102C93.1111 29.1206 92.6453 28.8686 92.1378 28.8021C91.8636 28.7732 91.6099 28.6424 91.426 28.4351C91.242 28.2278 91.1411 27.9589 91.1428 27.6805V27.601C91.1406 27.3285 91.2373 27.0647 91.4147 26.8594C91.5921 26.6539 91.8378 26.5214 92.1055 26.4865H92.1252H92.1457C92.6464 26.4152 93.1051 26.1645 93.438 25.7801C93.7709 25.3959 93.9559 24.9036 93.9592 24.3931C93.9605 23.8372 93.7463 23.3031 93.3623 22.9046C92.9677 22.5169 92.4385 22.3006 91.8879 22.302C91.3807 22.3001 90.8902 22.4849 90.5084 22.8219C90.1267 23.159 89.8798 23.6251 89.8141 24.1328V24.1535V24.1734C89.7797 24.4436 89.6483 24.6917 89.4449 24.8708C89.2415 25.0499 88.9802 25.1476 88.7103 25.1453H88.6314C88.3557 25.1471 88.0891 25.0452 87.8837 24.8595C87.6782 24.6739 87.5485 24.4177 87.5197 24.1407C87.4538 23.6284 87.2042 23.1582 86.8183 22.8189C86.4322 22.4797 85.9365 22.2949 85.4247 22.2996C84.9175 22.2977 84.4271 22.4825 84.0453 22.8196C83.6635 23.1567 83.4166 23.6227 83.351 24.1304V24.1511V24.171C83.3165 24.4412 83.1851 24.6893 82.9817 24.8684C82.7784 25.0475 82.517 25.1451 82.2471 25.1429H82.1454C81.8697 25.1447 81.6031 25.0428 81.3977 24.8571C81.1922 24.6715 81.0624 24.4153 81.0337 24.1384C80.9677 23.626 80.7182 23.1558 80.3322 22.8165C79.9462 22.4774 79.4504 22.2925 78.9387 22.2973C78.8834 22.2973 78.8275 22.2972 78.7723 22.3044C78.736 22.314 78.6982 22.3219 78.6604 22.3283H78.6398C78.2648 22.3811 77.9107 22.5348 77.6149 22.7733C77.194 23.1158 76.9185 23.6074 76.8445 24.1479V24.1678C76.8367 24.215 76.8265 24.2618 76.8137 24.308C76.8137 24.3533 76.8098 24.3995 76.8098 24.4448C76.8051 24.9614 76.988 25.4617 77.3239 25.8514C77.6597 26.2411 78.1254 26.4931 78.6327 26.5598C78.9069 26.5886 79.1607 26.7195 79.3446 26.9267C79.5286 27.1341 79.6295 27.403 79.6278 27.6813V27.7848C79.63 28.0572 79.5334 28.3209 79.3562 28.5262C79.179 28.7315 78.9334 28.8642 78.6659 28.8992H78.6454H78.6249C78.1219 28.9653 77.6601 29.2145 77.3262 29.5999C76.9923 29.9854 76.8093 30.4806 76.8114 30.9926C76.8065 31.5092 76.9894 32.0094 77.3253 32.399C77.6612 32.7886 78.1269 33.0404 78.6343 33.1068C78.9086 33.136 79.1622 33.2671 79.3461 33.4744C79.5299 33.6819 79.6309 33.9508 79.6294 34.2291V34.3087C79.6316 34.5811 79.535 34.8448 79.3578 35.0501C79.1805 35.2554 78.935 35.3881 78.6674 35.4231H78.6469H78.6265C78.1257 35.4945 77.6671 35.7452 77.3342 36.1295C77.0012 36.5138 76.8163 37.006 76.8129 37.5166C76.8115 38.0722 77.0258 38.6062 77.4098 39.0042C77.8042 39.3923 78.3336 39.6086 78.8842 39.6069C79.3899 39.6033 79.8774 39.4165 80.2581 39.0804C80.6387 38.7444 80.8871 38.2815 80.958 37.7761V37.7554L80.9619 37.7346C80.9966 37.4646 81.128 37.2167 81.3314 37.0377C81.5348 36.8589 81.7961 36.7613 82.0658 36.7635H82.1446C82.4204 36.7618 82.6869 36.8638 82.8924 37.0494C83.0978 37.2351 83.2277 37.4912 83.2564 37.7681C83.3223 38.2804 83.5719 38.7505 83.9579 39.0896C84.344 39.4288 84.8397 39.6133 85.3514 39.6085C85.8586 39.6106 86.3492 39.4258 86.731 39.0887C87.1128 38.7516 87.3596 38.2854 87.4251 37.7777V37.757L87.4291 37.7371C87.4635 37.4668 87.5949 37.2187 87.7983 37.0397C88.0017 36.8606 88.263 36.7629 88.5329 36.7651H88.6354C88.9102 36.7653 89.1751 36.8682 89.3792 37.054C89.5832 37.2399 89.7118 37.4954 89.7401 37.7713Z" fill="#061237"/>
<path id="Vector_9" d="M85.3904 33.6591C84.8924 33.6606 84.399 33.5623 83.9388 33.3699C83.4786 33.1775 83.0608 32.8949 82.7096 32.5384C82.3565 32.1838 82.0765 31.762 81.886 31.2974C81.6955 30.8329 81.5981 30.3348 81.5994 29.832C81.5994 29.6066 81.688 29.3906 81.8458 29.2312C82.0035 29.0717 82.2176 28.9821 82.4407 28.9819C82.664 28.9821 82.8779 29.0717 83.0357 29.2312C83.1934 29.3906 83.282 29.6066 83.282 29.832C83.2828 30.3962 83.5053 30.937 83.9005 31.3359C84.2958 31.7347 84.8316 31.9591 85.3904 31.9597C85.9493 31.9591 86.4851 31.7347 86.8803 31.3359C87.2756 30.937 87.4979 30.3962 87.4988 29.832C87.4987 29.7204 87.5204 29.6099 87.5626 29.5068C87.6048 29.4036 87.6668 29.3099 87.7449 29.2309C87.8231 29.152 87.9159 29.0893 88.0179 29.0466C88.1201 29.0039 88.2296 28.9819 88.3402 28.9819C88.5633 28.9821 88.7773 29.0717 88.9351 29.2312C89.0928 29.3906 89.1814 29.6066 89.1814 29.832C89.1828 30.3348 89.0853 30.8328 88.8948 31.2974C88.7043 31.762 88.4243 32.1838 88.0712 32.5384C87.72 32.8949 87.3022 33.1774 86.842 33.3699C86.3818 33.5622 85.8885 33.6606 85.3904 33.6591Z" fill="#061237"/>
</g>
</svg>
