<svg width="256" height="139" viewBox="0 0 256 139" fill="none" xmlns="http://www.w3.org/2000/svg">
<g id="61779b485e784e8596620986_Grey%20Stamps.svg">
<path id="Vector" d="M92.7559 72.4657L96.3306 71.4791C96.3896 72.2746 96.7575 73.0142 97.3544 73.5371C98.0532 74.1231 98.9458 74.4208 99.853 74.3702C100.529 74.4091 101.199 74.2243 101.762 73.8441C101.974 73.7017 102.147 73.5091 102.268 73.2833C102.388 73.0573 102.452 72.805 102.453 72.5484C102.454 72.3357 102.409 72.1254 102.32 71.9325C102.231 71.7396 102.102 71.5687 101.94 71.4323C101.5 71.0803 100.973 70.8545 100.417 70.7784L97.8499 70.1964C96.53 69.9508 95.3227 69.2851 94.4046 68.297C93.6106 67.3994 93.1802 66.2331 93.1992 65.0301C93.1985 64.279 93.3642 63.5372 93.6839 62.8591C94.0036 62.1809 94.4694 61.5834 95.0472 61.1103C96.2979 60.0127 97.9112 59.4291 99.5677 59.4749C100.409 59.4653 101.248 59.5825 102.055 59.8227C102.704 60.0076 103.319 60.2974 103.876 60.6808C104.334 61.0138 104.74 61.4145 105.08 61.8697C105.38 62.2582 105.63 62.6835 105.825 63.1355C105.978 63.5088 106.087 63.8992 106.149 64.2984L102.752 65.2851C102.715 65.0018 102.633 64.7264 102.51 64.4689C102.368 64.1733 102.188 63.8983 101.974 63.6517C101.708 63.3554 101.375 63.1282 101.004 62.9889C100.546 62.811 100.058 62.7243 99.5677 62.7338C98.9214 62.7099 98.2878 62.9187 97.7798 63.3229C97.5618 63.485 97.3842 63.6961 97.2608 63.9393C97.1374 64.1827 97.0718 64.4517 97.069 64.7251C97.0665 64.9413 97.1077 65.1556 97.1902 65.3551C97.2727 65.5546 97.3947 65.735 97.5488 65.885C97.9023 66.225 98.3499 66.4482 98.8322 66.525L101.447 67.0681C102.812 67.2942 104.074 67.9401 105.061 68.9178C105.886 69.7812 106.338 70.9395 106.318 72.1388C106.318 72.8613 106.179 73.5768 105.908 74.2457C105.628 74.9367 105.229 75.5723 104.73 76.1233C104.163 76.7308 103.469 77.2022 102.698 77.5026C101.802 77.8627 100.844 78.0412 99.8796 78.0277C98.7955 78.045 97.718 77.8535 96.7047 77.4637C95.868 77.1544 95.1112 76.658 94.4914 76.0117C93.9955 75.4819 93.5803 74.8807 93.2594 74.2277C92.9917 73.6743 92.8213 73.0781 92.7559 72.4657Z" fill="#67718E"/>
<path id="Vector_2" d="M106.328 63.6827V60.0211H107.217C107.584 60.0478 107.952 59.9939 108.297 59.8632C108.642 59.7324 108.954 59.5279 109.213 59.2636C109.681 58.7101 109.923 57.9974 109.889 57.2704V54.6255H113.621V60.0211H117.212V63.6827H113.621V71.831C113.593 72.1332 113.625 72.4382 113.716 72.7276C113.807 73.0171 113.955 73.2852 114.15 73.5161C114.621 73.9039 115.223 74.0906 115.828 74.0364C116.306 74.0374 116.782 73.99 117.251 73.8949V77.3153C116.437 77.6071 115.574 77.737 114.712 77.6979C114.017 77.7366 113.322 77.6337 112.667 77.3953C112.013 77.1569 111.413 76.7881 110.903 76.3107C110.424 75.8021 110.054 75.2 109.815 74.5415C109.576 73.883 109.472 73.1819 109.512 72.4817V63.6827H106.328Z" fill="#67718E"/>
<path id="Vector_3" d="M118.235 72.8011C118.205 72.1308 118.318 71.4619 118.567 70.8396C118.815 70.2174 119.194 69.6562 119.675 69.1943C120.735 68.2492 122.055 67.6547 123.459 67.4912L127.902 66.8074C128.757 66.6985 129.185 66.3054 129.185 65.6284C129.194 65.2862 129.125 64.9467 128.983 64.6356C128.841 64.3246 128.631 64.0505 128.368 63.8345C127.657 63.3186 126.788 63.0715 125.915 63.1369C125.002 63.0895 124.106 63.4029 123.418 64.011C122.798 64.5919 122.416 65.3868 122.348 66.2383L118.596 65.3982C118.675 64.5858 118.911 63.7968 119.291 63.0768C119.672 62.3566 120.19 61.7193 120.815 61.2015C122.228 60.017 124.025 59.4022 125.86 59.4753C127.023 59.4539 128.18 59.637 129.28 60.0166C130.165 60.315 130.965 60.8259 131.612 61.5055C132.175 62.1199 132.607 62.8439 132.883 63.6332C133.165 64.46 133.304 65.3293 133.296 66.2035V74.6837C133.282 75.6226 133.357 76.5608 133.521 77.4851H129.624C129.456 76.7561 129.39 76.0071 129.426 75.2597C128.907 76.0731 128.199 76.7466 127.364 77.2221C126.363 77.7854 125.23 78.064 124.085 78.0282C122.529 78.0976 121.008 77.5451 119.852 76.4905C119.338 76.0273 118.928 75.4585 118.649 74.8223C118.37 74.1859 118.229 73.4968 118.235 72.8011ZM122.348 72.502C122.343 72.8011 122.4 73.0978 122.515 73.3733C122.63 73.6489 122.801 73.8969 123.017 74.1016C123.268 74.329 123.561 74.5041 123.879 74.6165C124.197 74.7291 124.535 74.777 124.871 74.7573C125.43 74.7638 125.987 74.6839 126.523 74.5202C127.02 74.3637 127.483 74.1142 127.889 73.7847C128.327 73.4134 128.658 72.9291 128.846 72.3834C129.086 71.6944 129.201 70.9672 129.185 70.2368V69.4484L124.675 70.1461C124.051 70.2278 123.464 70.4921 122.987 70.9065C122.772 71.1096 122.604 71.3571 122.494 71.632C122.384 71.907 122.334 72.2027 122.348 72.499V72.502Z" fill="#67718E"/>
<path id="Vector_4" d="M136.076 77.4879V60.0213H140.051V62.1979C140.543 61.3307 141.289 60.6394 142.188 60.2196C143.11 59.7562 144.126 59.5147 145.157 59.514C146.258 59.4938 147.346 59.7601 148.316 60.2873C149.232 60.7907 149.959 61.5818 150.388 62.5407C150.957 61.5651 151.781 60.7664 152.77 60.2325C153.758 59.6986 154.873 59.45 155.993 59.514C156.755 59.5083 157.512 59.6416 158.227 59.9077C158.93 60.1737 159.575 60.5722 160.13 61.0816C160.742 61.6603 161.208 62.3778 161.489 63.1746C161.838 64.1277 162.007 65.1377 161.991 66.1534V77.4879H158.122V66.7843C158.169 65.8372 157.874 64.9049 157.291 64.1612C156.976 63.8187 156.588 63.5522 156.157 63.3814C155.724 63.2107 155.26 63.14 154.799 63.1746C154.313 63.1578 153.829 63.2493 153.381 63.4424C152.934 63.6357 152.535 63.9261 152.211 64.2927C151.541 65.0544 151.183 66.0466 151.215 67.0653V77.4879H147.103V66.7843C147.147 65.8417 146.855 64.9142 146.28 64.1702C145.966 63.8234 145.577 63.5536 145.143 63.3809C144.71 63.2081 144.244 63.1374 143.78 63.1736C143.292 63.1534 142.807 63.241 142.356 63.4304C141.906 63.6198 141.503 63.9063 141.174 64.2698C140.505 65.042 140.156 66.0435 140.195 67.0683V77.4908L136.076 77.4879Z" fill="#67718E"/>
<path id="Vector_5" d="M164.953 84.3055V60.0211H168.962V62.3612C169.468 61.51 170.208 60.8255 171.092 60.3909C172.132 59.8596 173.285 59.5945 174.449 59.6186C175.553 59.5649 176.655 59.7663 177.671 60.2074C178.686 60.6484 179.588 61.3175 180.309 62.1639C181.784 64.0185 182.542 66.3511 182.442 68.7275C182.535 71.1334 181.741 73.4887 180.213 75.3371C179.485 76.1881 178.576 76.8628 177.554 77.3113C176.532 77.7598 175.423 77.9707 174.309 77.9282C173.22 77.9494 172.139 77.7183 171.15 77.2526C170.319 76.8723 169.6 76.2798 169.063 75.5334V84.3035L164.953 84.3055ZM169.031 68.7306C168.963 70.1832 169.425 71.6107 170.33 72.742C170.738 73.2343 171.249 73.6273 171.829 73.8915C172.407 74.1555 173.038 74.2838 173.673 74.2668C174.309 74.285 174.942 74.1582 175.523 73.8957C176.104 73.6333 176.618 73.242 177.03 72.7509C177.938 71.6176 178.4 70.1863 178.328 68.7306C178.396 67.2987 177.937 65.8922 177.038 64.7819C176.624 64.2939 176.105 63.9063 175.522 63.6475C174.939 63.3888 174.306 63.2656 173.669 63.287C173.036 63.2693 172.406 63.3956 171.828 63.6565C171.249 63.9176 170.736 64.3067 170.327 64.7949C169.428 65.8991 168.967 67.3001 169.031 68.7275V68.7306Z" fill="#67718E"/>
<path id="Vector_6" d="M182.742 72.4657L186.317 71.4791C186.376 72.2746 186.745 73.0142 187.341 73.5371C188.04 74.1233 188.933 74.4209 189.841 74.3702C190.516 74.4089 191.187 74.2242 191.749 73.8441C191.961 73.7017 192.134 73.5091 192.255 73.2833C192.375 73.0573 192.439 72.805 192.44 72.5484C192.441 72.3357 192.395 72.1254 192.307 71.9325C192.218 71.7396 192.089 71.5687 191.927 71.4323C191.487 71.0803 190.96 70.8543 190.404 70.7784L187.838 70.1964C186.518 69.951 185.311 69.2853 184.394 68.297C183.599 67.4 183.168 66.2333 183.186 65.0301C183.186 64.279 183.352 63.5372 183.671 62.8591C183.991 62.1809 184.458 61.5834 185.035 61.1103C186.286 60.0127 187.899 59.4291 189.555 59.4749C190.397 59.4653 191.235 59.5825 192.043 59.8227C192.692 60.0074 193.307 60.2972 193.863 60.6808C194.322 61.014 194.729 61.4147 195.069 61.8697C195.369 62.2584 195.618 62.6837 195.813 63.1355C195.966 63.5088 196.074 63.8992 196.137 64.2984L192.741 65.2851C192.703 65.0019 192.621 64.7264 192.499 64.4689C192.357 64.1734 192.175 63.8986 191.961 63.6517C191.695 63.3554 191.363 63.1282 190.992 62.9889C190.534 62.8109 190.046 62.7242 189.555 62.7338C188.91 62.7099 188.276 62.9188 187.768 63.3229C187.551 63.4848 187.372 63.6958 187.249 63.9392C187.125 64.1825 187.059 64.4516 187.057 64.7251C187.055 64.9413 187.095 65.1556 187.178 65.3551C187.26 65.5546 187.382 65.735 187.536 65.885C187.89 66.2248 188.338 66.448 188.819 66.525L191.434 67.0681C192.799 67.2939 194.062 67.94 195.05 68.9178C195.873 69.7815 196.325 70.9397 196.305 72.1388C196.305 72.8613 196.166 73.577 195.895 74.2457C195.615 74.9369 195.216 75.5726 194.716 76.1233C194.15 76.7309 193.456 77.2022 192.684 77.5026C191.789 77.8627 190.832 78.0411 189.867 78.0277C188.783 78.0451 187.705 77.8536 186.692 77.4637C185.855 77.1542 185.099 76.6578 184.48 76.0117C183.984 75.4819 183.568 74.8807 183.247 74.2277C182.98 73.6741 182.809 73.078 182.742 72.4657Z" fill="#67718E"/>
<path id="Vector_7" d="M62.8899 59.7026C62.9079 59.6549 62.9207 59.6056 62.9284 59.5551C63.0532 58.6588 63.5101 57.8436 64.2069 57.2739C64.7004 56.8768 65.2906 56.621 65.9157 56.5334C65.9571 56.5272 65.9978 56.5168 66.0371 56.5025C66.1598 56.4897 66.2831 56.4834 66.4064 56.4836C67.2576 56.4786 68.0812 56.7881 68.7219 57.3539C69.3627 57.9198 69.7761 58.7028 69.8843 59.5551C69.8958 59.6903 69.9576 59.8161 70.0573 59.907C70.1569 59.998 70.287 60.0475 70.4213 60.0455H70.5488C70.6832 60.0479 70.8135 59.9987 70.9133 59.9075C71.0131 59.8165 71.0747 59.6905 71.0858 59.5551C71.1893 58.7048 71.5982 57.9225 72.2351 57.3564C72.8719 56.7901 73.6924 56.4796 74.541 56.4836C75.3922 56.4786 76.2158 56.7881 76.8565 57.3539C77.4973 57.9198 77.9107 58.7028 78.0189 59.5551C78.0303 59.6903 78.0921 59.8161 78.1919 59.907C78.2915 59.998 78.4216 60.0475 78.5559 60.0455H78.6547C78.7891 60.0479 78.9195 59.9987 79.0193 59.9075C79.119 59.8165 79.1807 59.6905 79.1917 59.5551C79.2992 58.7066 79.7094 57.9267 80.3454 57.3614C80.9813 56.796 81.7995 56.4839 82.647 56.4836C83.5626 56.4835 84.4419 56.8455 85.0962 57.4922C85.738 58.154 86.097 59.0436 86.0962 59.9698C86.0963 60.8254 85.7872 61.6519 85.2269 62.294C84.6666 62.9362 83.8936 63.3499 83.0527 63.4578C82.9187 63.469 82.7938 63.5312 82.7036 63.6319C82.6133 63.7327 82.5645 63.8643 82.5669 64.0001V64.0997C82.5649 64.2354 82.614 64.3666 82.7042 64.4673C82.7943 64.5679 82.9188 64.6302 83.0527 64.6418C83.8971 64.7506 84.6729 65.1677 85.2336 65.8144C85.7944 66.461 86.1012 67.2926 86.0962 68.1519C86.1002 69.0087 85.7924 69.8372 85.2314 70.4801C84.6704 71.1231 83.8951 71.5358 83.0527 71.64C82.9187 71.6512 82.7938 71.7134 82.7036 71.8141C82.6133 71.9148 82.5645 72.0465 82.5669 72.1822V72.3118C82.5652 72.4473 82.6143 72.5786 82.7044 72.6791C82.7945 72.7796 82.9189 72.8421 83.0527 72.8539C83.8971 72.9627 84.6729 73.3798 85.2336 74.0265C85.7944 74.6731 86.1012 75.5045 86.0962 76.364C86.0962 76.4795 86.0904 76.5932 86.0795 76.7058C86.0612 76.7535 86.0479 76.8028 86.04 76.8533C85.916 77.7497 85.4594 78.5652 84.7625 79.1345C84.2686 79.5317 83.678 79.7875 83.0527 79.875C83.0118 79.8816 82.9716 79.8916 82.9323 79.9049C82.8093 79.9182 82.6857 79.9248 82.5621 79.9248C81.7109 79.9298 80.8874 79.6202 80.2468 79.0544C79.6063 78.4886 79.1931 77.7056 79.0851 76.8533C79.0736 76.7182 79.0118 76.5925 78.9122 76.5014C78.8126 76.4104 78.6824 76.361 78.548 76.363H78.4197C78.2852 76.3605 78.1549 76.4099 78.0551 76.5009C77.9553 76.592 77.8936 76.7179 77.8827 76.8533C77.7794 77.7036 77.3705 78.4862 76.7336 79.0524C76.0967 79.6186 75.276 79.929 74.4275 79.9248C73.5762 79.9299 72.7526 79.6203 72.1119 79.0545C71.4712 78.4886 71.0577 77.7057 70.9496 76.8533C70.938 76.7182 70.8762 76.5925 70.7766 76.5014C70.677 76.4104 70.5468 76.361 70.4125 76.363H70.3138C70.1793 76.3605 70.0489 76.4099 69.9492 76.5009C69.8494 76.592 69.7877 76.7179 69.7766 76.8533C69.6695 77.7021 69.2595 78.4821 68.6235 79.0476C67.9874 79.6131 67.169 79.9249 66.3215 79.9248C65.4039 79.9262 64.5224 79.564 63.8662 78.9162C63.2249 78.2542 62.8662 77.3648 62.8672 76.4388C62.8672 75.5831 63.176 74.7569 63.7362 74.1148C64.2963 73.4727 65.0691 73.0587 65.9098 72.9506C66.044 72.9397 66.1691 72.8776 66.2596 72.7769C66.3499 72.6761 66.399 72.5444 66.3965 72.4084V72.3088C66.3982 72.1731 66.349 72.0417 66.2587 71.9411C66.1684 71.8405 66.0437 71.7782 65.9098 71.7666C65.0655 71.6576 64.29 71.2404 63.7295 70.5938C63.169 69.9472 62.8622 69.1158 62.8672 68.2566C62.8631 67.3998 63.1707 66.5714 63.7314 65.9284C64.2923 65.2854 65.0674 64.8726 65.9098 64.7684C66.044 64.7575 66.1691 64.6954 66.2596 64.5947C66.3499 64.494 66.399 64.3622 66.3965 64.2263V64.0967C66.3982 63.961 66.349 63.8296 66.2587 63.729C66.1684 63.6284 66.0437 63.5661 65.9098 63.5545C65.0655 63.4455 64.29 63.0283 63.7295 62.3817C63.169 61.7351 62.8622 60.9037 62.8672 60.0445C62.8672 59.9289 62.8731 59.8153 62.884 59.7026H62.8899ZM65.9187 55.3943C65.8759 55.3831 65.8324 55.3754 65.7884 55.3713C64.6245 55.5352 63.5647 56.1363 62.8209 57.0546C62.259 57.7304 61.8977 58.5525 61.7784 59.4265C61.7812 59.4645 61.7872 59.5022 61.7961 59.5392C61.781 59.6898 61.7734 59.8412 61.7734 59.9927C61.7806 60.833 62.0094 61.6562 62.4364 62.3776C62.8634 63.0989 63.4733 63.6923 64.2029 64.0967C63.473 64.5012 62.8632 65.0948 62.4361 65.8163C62.0092 66.5378 61.7804 67.3612 61.7734 68.2018C61.7806 69.0421 62.0094 69.8653 62.4364 70.5866C62.8634 71.308 63.4733 71.9014 64.2029 72.3058C63.4688 72.7051 62.8553 73.2974 62.4276 74.0202C61.9998 74.7428 61.7738 75.5689 61.7734 76.4107C61.7734 76.5413 61.7793 76.6699 61.7892 76.7985C61.7751 76.8579 61.7705 76.9191 61.7754 76.9799C61.911 78.0059 62.3789 78.9579 63.1061 79.6877C63.829 80.4218 64.772 80.8942 65.7884 81.0311C65.849 81.0361 65.9099 81.0314 65.9691 81.0172C66.0954 81.0281 66.2237 81.0331 66.353 81.0331C67.1868 81.0328 68.005 80.8046 68.7208 80.3728C69.4365 79.9409 70.0232 79.3216 70.4183 78.5804C70.8188 79.3172 71.4065 79.9329 72.1211 80.364C72.8357 80.7951 73.6513 81.0261 74.4837 81.0331C75.3163 81.0263 76.132 80.7954 76.8469 80.3643C77.5616 79.9332 78.1495 79.3173 78.55 78.5804C78.9504 79.3172 79.5382 79.9329 80.2528 80.364C80.9674 80.7951 81.7829 81.0261 82.6153 81.0331C82.7624 81.0331 82.9115 81.0261 83.0517 81.0122C83.0947 81.0235 83.1387 81.0309 83.183 81.0341C84.3449 80.8702 85.4027 80.2693 86.1446 79.3518C86.7068 78.6762 87.0686 77.854 87.1881 76.9799C87.1851 76.9419 87.1792 76.9043 87.1704 76.8673C87.1851 76.7178 87.192 76.5683 87.192 76.4139C87.1851 75.5735 86.9565 74.7504 86.5295 74.0291C86.1027 73.3077 85.4931 72.7142 84.7635 72.3098C85.4932 71.9052 86.1029 71.3116 86.5299 70.5901C86.9567 69.8685 87.1853 69.0452 87.192 68.2048C87.1851 67.3645 86.9565 66.5413 86.5295 65.82C86.1027 65.0986 85.4931 64.5051 84.7635 64.1007C85.4975 63.7012 86.1108 63.1089 86.5383 62.3861C86.9659 61.6634 87.1917 60.8374 87.192 59.9957C87.192 59.8651 87.1871 59.7355 87.1772 59.6079C87.1904 59.5485 87.195 59.4874 87.1911 59.4265C87.0558 58.4002 86.5875 57.448 85.8594 56.7188C85.1372 55.9843 84.1943 55.5118 83.1781 55.3753C83.1175 55.3703 83.0565 55.375 82.9974 55.3893C82.8711 55.3783 82.7426 55.3733 82.6133 55.3733C81.7795 55.3737 80.9614 55.6018 80.2456 56.0337C79.5299 56.4655 78.9433 57.0849 78.548 57.826C78.1475 57.0891 77.5596 56.4733 76.8449 56.0422C76.1301 55.6111 75.3143 55.3802 74.4817 55.3733C73.6493 55.3803 72.8338 55.6113 72.1192 56.0424C71.4045 56.4735 70.8168 57.0892 70.4164 57.826C70.0159 57.0891 69.428 56.4733 68.7132 56.0422C67.9984 55.6111 67.1827 55.3802 66.3501 55.3733C66.203 55.3733 66.0539 55.3803 65.9138 55.3943H65.9187Z" fill="#67718E"/>
<path id="Vector_8" d="M83.2091 81.9088L83.1183 81.9018C83.0808 81.9018 83.0423 81.8938 83.0048 81.8889C82.8765 81.8978 82.7462 81.9028 82.6168 81.9028C81.6153 81.9014 80.6337 81.6202 79.7806 81.0906C79.3263 80.81 78.9139 80.4657 78.5554 80.0681C78.0395 80.6414 77.4114 81.1005 76.7109 81.4163C76.0102 81.7321 75.2524 81.8977 74.4852 81.9028C73.4837 81.9014 72.5021 81.6202 71.6489 81.0906C71.1961 80.8105 70.7847 80.4673 70.4268 80.0711C70.0718 80.468 69.6622 80.8113 69.2105 81.0906C68.3509 81.6218 67.3625 81.9028 66.3545 81.9028C66.24 81.9028 66.1246 81.9028 66.01 81.8919C65.915 81.9038 65.8191 81.9058 65.7237 81.8978H65.6991H65.6744C65.0686 81.8158 64.4804 81.633 63.9339 81.3567C63.4027 81.0874 62.9184 80.7331 62.4995 80.3073C62.0777 79.8848 61.727 79.3957 61.461 78.8592C61.1864 78.3077 61.0049 77.7139 60.924 77.1022V77.0772V77.0523C60.917 76.956 60.919 76.8593 60.9299 76.7634C60.923 76.6478 60.92 76.5311 60.92 76.4165C60.9196 75.399 61.1976 74.4012 61.7236 73.5333C61.9999 73.0765 62.3404 72.6626 62.7344 72.3045C62.3412 71.9436 62.0009 71.5282 61.7236 71.0707C61.1993 70.2093 60.9211 69.2184 60.92 68.2074C60.925 67.433 61.0889 66.6679 61.4016 65.9607C61.7142 65.2535 62.1688 64.6193 62.7364 64.0984C62.3425 63.7366 62.0015 63.3202 61.7236 62.8616C61.1993 62.0003 60.9211 61.0093 60.92 59.9983C60.92 59.8598 60.925 59.7203 60.9357 59.5818C60.9318 59.5539 60.9288 59.526 60.9268 59.4981L60.92 59.4064L60.9318 59.3146C61.0726 58.2799 61.5 57.3065 62.1648 56.5063C63.0443 55.4172 64.2996 54.705 65.6783 54.513L65.7691 54.5L65.8609 54.507C65.8985 54.507 65.936 54.515 65.9735 54.52C66.1028 54.511 66.2331 54.506 66.3614 54.506C67.3633 54.5078 68.3452 54.7888 69.1987 55.3183C69.6526 55.5989 70.0648 55.9432 70.4228 56.3408C70.9387 55.7675 71.5668 55.3084 72.2674 54.9926C72.968 54.6768 73.7259 54.5111 74.4931 54.506C75.4949 54.5078 76.4768 54.7888 77.3303 55.3183C77.7832 55.5985 78.1945 55.9417 78.5524 56.3378C78.9074 55.9409 79.317 55.5976 79.7687 55.3183C80.6284 54.7871 81.6167 54.5059 82.6247 54.506C82.7393 54.506 82.8547 54.506 82.9683 54.517C83.0635 54.505 83.1599 54.503 83.2555 54.511H83.2793H83.3039C83.9098 54.5929 84.4979 54.7757 85.0444 55.0521C85.576 55.3211 86.0608 55.6755 86.4798 56.1016C86.902 56.5237 87.2529 57.0129 87.5183 57.5496C87.7921 58.1013 87.9733 58.6951 88.0544 59.3067V59.3316V59.3565C88.0614 59.4529 88.0592 59.5497 88.0474 59.6456C88.0544 59.7612 88.0583 59.8767 88.0583 59.9923C88.0584 61.0099 87.78 62.0077 87.2538 62.8756C86.9778 63.3324 86.6376 63.7462 86.2438 64.1043C86.637 64.465 86.977 64.8805 87.2538 65.3382C87.7784 66.1994 88.0569 67.1904 88.0583 68.2014C88.0534 68.976 87.8893 69.7411 87.5765 70.4484C87.2637 71.1557 86.8089 71.7897 86.2408 72.3105C86.6348 72.6718 86.9758 73.0879 87.2538 73.5463C87.7782 74.4079 88.0566 75.3991 88.0583 76.4105C88.0583 76.5491 88.0534 76.6886 88.0425 76.8262C88.0425 76.8541 88.0494 76.883 88.0514 76.9108L88.0583 77.0025L88.0455 77.0942C87.9051 78.1288 87.4781 79.1024 86.8135 79.9027C85.9338 80.9918 84.678 81.7041 83.299 81.8958L83.2091 81.9088ZM79.9435 76.7504C80.0258 77.3917 80.338 77.9803 80.8212 78.4049C81.3043 78.8295 81.9249 79.0606 82.5655 79.0545C82.6356 79.0545 82.7047 79.0546 82.7738 79.0466C82.8202 79.0346 82.8666 79.0246 82.914 79.0167H82.9396C83.4091 78.9502 83.8524 78.7578 84.223 78.4596C84.7493 78.0302 85.0941 77.4149 85.1876 76.7384V76.7135C85.1972 76.6543 85.2101 76.5958 85.2261 76.5381C85.2261 76.4813 85.232 76.4235 85.232 76.3667C85.2377 75.7198 85.0087 75.0932 84.588 74.6053C84.1672 74.1174 83.584 73.802 82.9485 73.7186C82.6052 73.6825 82.2876 73.5188 82.0572 73.2592C81.827 72.9997 81.7006 72.6629 81.7027 72.3144V72.1849C81.7 71.8437 81.821 71.5134 82.0431 71.2564C82.2653 70.9993 82.5729 70.8333 82.9081 70.7896H82.9328H82.9584C83.588 70.7067 84.1661 70.3946 84.5841 69.912C85.0022 69.4296 85.2314 68.8096 85.229 68.1685C85.2349 67.5217 85.0057 66.8951 84.585 66.4072C84.1642 65.9193 83.581 65.6039 82.9456 65.5205C82.6023 65.4844 82.2846 65.3206 82.0543 65.0611C81.824 64.8016 81.6977 64.4648 81.6997 64.1163V64.0167C81.697 63.6755 81.8181 63.3452 82.0402 63.0882C82.2623 62.831 82.5699 62.6651 82.9051 62.6214H82.9297H82.9554C83.5823 62.532 84.1566 62.2182 84.5735 61.737C84.9902 61.2559 85.2219 60.6395 85.2261 60.0003C85.2276 59.3044 84.9594 58.6356 84.4787 58.1367C83.9846 57.6512 83.322 57.3805 82.6326 57.3822C81.9976 57.3798 81.3835 57.6112 80.9055 58.0332C80.4275 58.4552 80.1185 59.0388 80.0362 59.6745V59.7004V59.7253C79.9931 60.0636 79.8286 60.3742 79.5739 60.5985C79.3193 60.8226 78.9921 60.945 78.6542 60.9421H78.5554C78.2102 60.9443 77.8764 60.8167 77.6192 60.5842C77.3619 60.3519 77.1995 60.0311 77.1635 59.6844C77.081 59.0429 76.7685 58.4542 76.2853 58.0294C75.8019 57.6046 75.1813 57.3734 74.5405 57.3793C73.9055 57.3768 73.2915 57.6082 72.8134 58.0303C72.3354 58.4523 72.0263 59.0358 71.9442 59.6715V59.6974V59.7223C71.9009 60.0606 71.7364 60.3712 71.4818 60.5955C71.2271 60.8196 70.8999 60.9419 70.562 60.9391H70.4347C70.0894 60.9413 69.7557 60.8137 69.4985 60.5812C69.2412 60.3489 69.0787 60.0281 69.0427 59.6815C68.9602 59.0399 68.6478 58.4512 68.1645 58.0264C67.6811 57.6017 67.0604 57.3704 66.4197 57.3763C66.3505 57.3763 66.2805 57.3762 66.2113 57.3853C66.1659 57.3973 66.1187 57.4071 66.0713 57.4151H66.0455C65.576 57.4813 65.1327 57.6737 64.7622 57.9723C64.2353 58.4011 63.8904 59.0166 63.7977 59.6934V59.7183C63.788 59.7774 63.7751 59.836 63.7592 59.8937C63.7592 59.9505 63.7543 60.0083 63.7543 60.0651C63.7484 60.7118 63.9774 61.3383 64.3979 61.8262C64.8184 62.3141 65.4014 62.6296 66.0366 62.7131C66.3799 62.7492 66.6977 62.913 66.9279 63.1725C67.1583 63.4322 67.2846 63.7689 67.2825 64.1173V64.2469C67.2853 64.5879 67.1643 64.9181 66.9424 65.1751C66.7206 65.4322 66.4131 65.5983 66.0782 65.6421H66.0525H66.0268C65.397 65.7249 64.8189 66.0369 64.4008 66.5195C63.9827 67.0021 63.7536 67.6222 63.7562 68.2632C63.7502 68.9099 63.9791 69.5363 64.3997 70.0241C64.8203 70.5119 65.4034 70.8272 66.0386 70.9102C66.382 70.9469 66.6996 71.1109 66.9298 71.3705C67.1599 71.6302 67.2864 71.967 67.2845 72.3154V72.4151C67.2873 72.7561 67.1663 73.0863 66.9444 73.3433C66.7225 73.6004 66.4151 73.7665 66.0801 73.8103H66.0544H66.0288C65.4018 73.8998 64.8276 74.2136 64.4108 74.6948C63.994 75.176 63.7624 75.7922 63.7582 76.4315C63.7564 77.1271 64.0247 77.7957 64.5055 78.2941C64.9993 78.78 65.6621 79.0508 66.3515 79.0486C66.9847 79.0441 67.595 78.8102 68.0717 78.3894C68.5483 77.9688 68.8592 77.3892 68.9479 76.7564V76.7305L68.9529 76.7045C68.9963 76.3664 69.1608 76.056 69.4155 75.8319C69.6701 75.608 69.9973 75.4858 70.3349 75.4886H70.4337C70.7789 75.4865 71.1127 75.6141 71.37 75.8466C71.6272 76.079 71.7897 76.3997 71.8256 76.7464C71.9082 77.3877 72.2207 77.9764 72.704 78.401C73.1873 78.8256 73.808 79.0567 74.4486 79.0506C75.0838 79.0533 75.698 78.8219 76.176 78.3998C76.654 77.9778 76.963 77.3941 77.0451 76.7584V76.7325L77.05 76.7076C77.0931 76.3692 77.2576 76.0585 77.5123 75.8344C77.7669 75.6101 78.0941 75.4878 78.432 75.4906H78.5604C78.9044 75.4908 79.2362 75.6196 79.4917 75.8523C79.7471 76.085 79.9081 76.4049 79.9435 76.7504Z" fill="#67718E"/>
<path id="Vector_9" d="M74.4965 71.6027C73.873 71.6045 73.2552 71.4814 72.679 71.2405C72.1029 70.9997 71.5798 70.6458 71.1401 70.1995C70.698 69.7555 70.3474 69.2274 70.1089 68.6458C69.8703 68.0642 69.7484 67.4405 69.75 66.811C69.75 66.5288 69.861 66.2583 70.0586 66.0587C70.256 65.8591 70.524 65.7468 70.8034 65.7466C71.0829 65.7468 71.3508 65.8591 71.5484 66.0587C71.7458 66.2583 71.8568 66.5288 71.8568 66.811C71.8578 67.5174 72.1363 68.1944 72.6311 68.6939C73.126 69.1932 73.7969 69.4742 74.4965 69.475C75.1963 69.4742 75.8671 69.1932 76.3619 68.6939C76.8568 68.1944 77.1353 67.5174 77.1364 66.811C77.1362 66.6713 77.1634 66.5329 77.2162 66.4038C77.2691 66.2746 77.3467 66.1573 77.4445 66.0583C77.5423 65.9595 77.6585 65.8811 77.7863 65.8276C77.9142 65.7742 78.0513 65.7466 78.1897 65.7466C78.4691 65.7468 78.7371 65.8591 78.9346 66.0587C79.1321 66.2583 79.243 66.5288 79.243 66.811C79.2448 67.4405 79.1227 68.0641 78.8841 68.6458C78.6456 69.2273 78.2951 69.7555 77.8531 70.1995C77.4132 70.6458 76.8902 70.9995 76.314 71.2405C75.7378 71.4813 75.1202 71.6045 74.4965 71.6027Z" fill="#67718E"/>
</g>
</svg>
