<svg width="256" height="139" viewBox="0 0 256 139" fill="none" xmlns="http://www.w3.org/2000/svg">
<g id="61779b485e784e451b620983_Grey%20Manter.svg">
<path id="Vector" d="M104.315 79.8331V80.0239H96.2658V79.8331C97.1704 79.6743 97.5266 79.4516 97.6232 78.7525V68.1988C97.6232 66.2585 96.9125 65.3047 95.4577 65.3047C94.9768 65.3143 94.5113 65.4733 94.1278 65.7589C93.7442 66.0443 93.4623 66.4419 93.3221 66.8946C93.3881 67.2621 93.4208 67.6347 93.4195 68.008V77.9297C93.4195 79.1062 93.7749 79.5836 94.8718 79.8373V80.0281H87.1785V79.8331C88.2771 79.5811 88.6307 79.102 88.6307 77.9255V68.1946C88.6307 66.2543 87.8867 65.3005 86.4644 65.3005C86.0122 65.3046 85.5727 65.4479 85.2074 65.7103C84.8421 65.9727 84.5696 66.341 84.428 66.7635V77.9255C84.428 79.102 84.7834 79.5794 85.8802 79.8331V80.0239H77.7344V79.8331C78.9943 79.5475 79.641 79.0062 79.641 77.7323V67.5946C79.641 65.9089 79.189 65.3997 77.7344 65.2727V65.082L84.4254 63.2694V66.2585C84.7074 65.3465 85.2886 64.5522 86.0782 63.9997C86.8679 63.4474 87.8215 63.168 88.7897 63.2055C91.2139 63.2055 92.7336 64.4139 93.2179 66.3862C93.533 65.4405 94.15 64.6201 94.9771 64.047C95.8042 63.474 96.7973 63.1788 97.8086 63.2055C100.815 63.2055 102.399 65.1139 102.399 68.008V77.739C102.408 79.0104 103.054 79.5517 104.315 79.8331Z" fill="#67718E"/>
<path id="Vector_2" d="M121.417 76.5628C120.868 79.1677 119.154 80.5064 116.89 80.5064C116.482 80.5431 116.07 80.4996 115.679 80.3782C115.288 80.257 114.926 80.0603 114.613 79.8C114.3 79.5395 114.043 79.2204 113.857 78.8613C113.67 78.5021 113.559 78.1102 113.528 77.7082L113.464 77.456C113.168 78.3782 112.57 79.178 111.763 79.73C110.956 80.282 109.985 80.5551 109.004 80.5064C108.449 80.5489 107.89 80.4775 107.365 80.2966C106.839 80.1157 106.357 79.8293 105.95 79.4556C105.543 79.0819 105.219 78.629 104.999 78.1257C104.779 77.6223 104.667 77.0795 104.672 76.5317C104.672 73.7014 107 71.8569 110.717 71.0931L113.4 70.5527V69.8805C113.4 67.4317 112.495 65.7468 109.779 65.7468C107.679 65.7468 106.192 66.7326 105.48 69.2132L105.224 69.1494C105.736 65.4923 108.197 63.2024 112.012 63.2024C116.312 63.2024 118.187 65.9057 118.187 69.9762V76.3678C118.187 77.4812 118.736 78.0534 119.447 78.0534C120.062 78.0534 120.772 77.7039 121.128 76.5275L121.417 76.5628ZM113.4 76.9131V71.3468L112.14 71.5695C109.618 72.0787 109.134 73.6367 109.134 75.1947C109.134 76.8165 109.942 78.0887 111.493 78.0887C111.897 78.1189 112.3 78.021 112.643 77.8095C112.986 77.5979 113.252 77.2838 113.4 76.9131Z" fill="#67718E"/>
<path id="Vector_3" d="M138.972 79.8342V80.0249H130.826V79.8342C131.893 79.5821 132.278 79.1031 132.278 77.9266V68.2317C132.278 66.2914 131.535 65.3057 130.016 65.3057C129.5 65.3014 128.995 65.4469 128.564 65.7241C128.133 66.0013 127.794 66.3978 127.591 66.8637V77.9308C127.591 79.1073 127.947 79.5846 129.044 79.8384V80.0291H120.898V79.8342C122.159 79.5485 122.806 79.0072 122.806 77.7333V67.5956C122.806 65.9099 122.353 65.4006 120.898 65.2738V65.083L127.59 63.2705V66.3888C127.918 65.4187 128.561 64.5816 129.42 64.0064C130.28 63.4314 131.307 63.1503 132.345 63.2065C135.42 63.2065 137.065 65.0553 137.065 68.0402V77.74C137.066 79.0114 137.712 79.5527 138.972 79.8342Z" fill="#67718E"/>
<path id="Vector_4" d="M149.965 76.2763C149.254 78.5973 147.508 80.5057 144.696 80.5057C141.98 80.5057 140.687 78.8201 140.687 76.3402V64.3823H138.812V64.2235C141.388 62.7953 143.625 60.8443 145.375 58.5H145.504V63.747H148.769V64.3823H145.5V75.6082C145.5 77.0713 146.115 78.057 147.31 78.057C147.867 78.0561 148.405 77.8701 148.839 77.5293C149.274 77.1886 149.578 76.7131 149.702 76.1805L149.965 76.2763Z" fill="#67718E"/>
<path id="Vector_5" d="M163.381 74.2734C162.572 78.8524 159.631 80.5062 156.818 80.5062C153.068 80.5062 149.643 77.644 149.643 72.1743C149.643 66.9591 152.585 63.2063 157.013 63.2063C160.148 63.2063 163.382 65.1466 163.349 70.3936H153.392C153.716 74.4642 155.849 76.7221 158.986 76.7221C159.862 76.8015 160.743 76.5998 161.494 76.147C162.245 75.6942 162.828 75.0146 163.155 74.2096L163.381 74.2734ZM153.359 69.2457V69.5953H158.951C158.984 65.5248 157.917 64.0937 156.303 64.0937C154.491 64.097 153.359 66.0684 153.359 69.2457Z" fill="#67718E"/>
<path id="Vector_6" d="M175.762 63.2063V67.7861H175.601C175.072 67.5577 174.496 67.4593 173.92 67.4995C171.819 67.4995 170.428 68.613 170.428 72.8423V77.7398C170.428 79.1683 171.237 79.6154 172.981 79.8406V80.0314H163.736V79.8339C164.997 79.5481 165.644 79.007 165.644 77.7331V67.8811C165.644 66.0684 165.158 65.4324 163.736 65.3054V65.1147L170.234 63.2702V70.3936H170.396C170.653 65.2735 172.594 63.2063 175.407 63.2063H175.762Z" fill="#67718E"/>
<path id="Vector_7" d="M174.34 77.8347C174.351 77.1413 174.639 76.4799 175.14 75.9927C175.642 75.5056 176.318 75.2316 177.023 75.2297C177.722 75.2388 178.39 75.5162 178.885 76.0028C179.38 76.4894 179.662 77.1467 179.671 77.8347C179.675 78.5299 179.398 79.1981 178.901 79.6929C178.405 80.1877 177.729 80.4687 177.023 80.4742C176.67 80.4751 176.321 80.4075 175.995 80.2751C175.669 80.1428 175.373 79.9483 175.124 79.7031C174.874 79.4578 174.676 79.1665 174.542 78.8459C174.407 78.5253 174.339 78.1816 174.34 77.8347Z" fill="#67718E"/>
</g>
</svg>
