<svg width="97" height="33" viewBox="0 0 97 33" fill="none" xmlns="http://www.w3.org/2000/svg">
<g id="61779b485e784e7e77620967_Logo.svg">
<path id="Vector" d="M15.9993 3.16602C23.3593 3.16602 29.3327 9.13935 29.3327 16.4993C29.3327 23.8593 23.3593 29.8327 15.9993 29.8327C8.63935 29.8327 2.66602 23.8593 2.66602 16.4993C2.66602 9.13935 8.63935 3.16602 15.9993 3.16602ZM15.9993 27.166C21.902 27.166 26.666 22.402 26.666 16.4993C26.666 10.5967 21.902 5.83268 15.9993 5.83268C14.5981 5.83093 13.2102 6.10563 11.9153 6.64106C10.6204 7.17649 9.4438 7.96212 8.45296 8.95296C7.46212 9.9438 6.67649 11.1204 6.14106 12.4153C5.60563 13.7102 5.33093 15.0981 5.33268 16.4993C5.33268 22.402 10.0967 27.166 15.9993 27.166ZM15.9993 24.4993C11.5727 24.4993 7.99935 20.926 7.99935 16.4993C7.99935 12.0727 11.5727 8.49935 15.9993 8.49935C20.426 8.49935 23.9993 12.0727 23.9993 16.4993C23.9993 20.926 20.426 24.4993 15.9993 24.4993ZM15.9993 13.8327C14.5327 13.8327 13.3327 15.0327 13.3327 16.4993C13.3327 17.966 14.5327 19.166 15.9993 19.166C17.466 19.166 18.666 17.966 18.666 16.4993C18.666 15.0327 17.466 13.8327 15.9993 13.8327Z" fill="#1355FF"/>
<path id="Vector_2" d="M40 17.0646C40 21.0529 42.8543 23.6787 47.1988 23.6787C51.5686 23.6787 54.4229 20.9043 54.4229 17.0646C54.4229 13.2498 51.5686 10.5249 47.1988 10.5249C42.8543 10.5249 40 13.0764 40 17.0646ZM43.2837 17.0646C43.2837 15.0333 44.3951 13.4479 47.1988 13.4479C50.0025 13.4479 51.1392 15.0333 51.1392 17.0646C51.1392 19.0959 50.0025 20.7556 47.1988 20.7556C44.4203 20.7556 43.2837 19.0959 43.2837 17.0646Z" fill="#061237"/>
<path id="Vector_3" d="M59.0064 22.3162C59.0064 21.573 58.5517 20.706 58.3244 19.9876L58.8548 19.8142C59.1074 20.5078 59.2337 21.5235 59.7642 22.0437C60.6987 23.0098 62.0122 23.6538 63.6793 23.6538C67.3418 23.6538 69.893 20.6069 69.994 17.0398C70.0698 13.3735 67.4681 10.5 63.6793 10.5C61.9869 10.5 60.6735 11.0698 59.7389 12.0359C59.2337 12.5561 59.1074 13.5717 58.8548 14.2901L58.3244 14.1167C58.577 13.3983 59.0064 12.5313 59.0064 11.7881V10.8964L55.8995 10.9211V29.5L59.0064 29.4752V22.3162ZM63.2499 13.324C65.6242 13.324 66.8872 14.9094 66.8872 16.9902C66.8872 19.0958 65.6242 20.8299 63.2499 20.8299C60.9008 20.8299 59.5621 19.0958 59.5621 16.9902C59.5621 14.9094 60.9008 13.324 63.2499 13.324Z" fill="#061237"/>
<path id="Vector_4" d="M79.4825 22.5144C79.9877 22.0438 80.1645 21.152 80.3918 20.5079L80.9223 20.7061C80.6949 21.3502 80.2403 22.1181 80.215 22.7869V23.2824H83.2966V10.8965H80.215V17.4362C80.215 19.8886 78.6995 20.9786 76.8556 20.9786C75.1632 20.9786 73.9761 20.0125 73.9761 17.4362V10.8965H70.8692V19.3932C70.8692 22.1924 73.2688 23.6539 75.7442 23.6539C77.4871 23.6539 78.4469 23.5053 79.4825 22.5144Z" fill="#061237"/>
<path id="Vector_5" d="M97 19.2693C97 14.2406 87.7805 15.9499 87.7805 14.1663C87.7805 13.3736 88.9929 13.0021 90.3822 13.0021C92.4281 13.0021 93.6153 13.6214 93.6153 14.4141H96.7222C96.7222 12.68 95.0298 10.5249 90.559 10.5249C86.568 10.5249 84.6736 12.2589 84.6736 14.1911C84.6736 18.65 93.8426 17.0399 93.8426 19.4675C93.8426 20.1611 93.2112 20.83 91.2915 20.83C88.9171 20.83 87.6794 19.7152 87.6794 19.0712H84.5726C84.5726 21.152 86.6186 23.6787 90.9631 23.6787C95.0803 23.6787 97 21.6722 97 19.2693Z" fill="#061237"/>
</g>
</svg>
