<svg width="256" height="139" viewBox="0 0 256 139" fill="none" xmlns="http://www.w3.org/2000/svg">
<g id="61779b485e784eb6a8620985_Grey%20Wetransfer.svg">
<path id="Vector" d="M57.6754 79.6275C57.8109 79.6275 57.898 79.5004 57.9367 79.2461C57.9948 78.9918 57.9076 78.532 57.6754 77.867C57.598 77.6127 57.4238 77.1627 57.1528 76.5171C56.9012 75.8715 56.6012 75.1281 56.2529 74.287C55.9045 73.4458 55.5465 72.5949 55.1787 71.734C54.8303 70.8733 54.5109 70.081 54.2206 69.3572C53.9303 68.6334 53.7077 68.0857 53.5529 67.714C53.3012 67.0488 53.0304 66.5794 52.74 66.3055C52.4691 66.0316 52.2465 65.8946 52.0723 65.8946H57.9948C57.8786 65.8946 57.8013 66.0316 57.7625 66.3055C57.7238 66.5794 57.8013 67.0488 57.9948 67.714C58.0916 68.0661 58.2464 68.5845 58.4592 69.2692C58.6915 69.9539 58.9432 70.7265 59.2141 71.5874C59.5044 72.4481 59.7948 73.3284 60.0851 74.2283C60.3947 75.1281 60.6754 75.9595 60.927 76.7225H60.956C61.169 75.94 61.4012 75.0988 61.6528 74.199C61.9044 73.2795 62.1464 72.3895 62.3786 71.5287C62.6108 70.6483 62.8141 69.8659 62.9883 69.1812C63.1818 68.4964 63.3173 67.9879 63.3947 67.6553C63.5689 66.9902 63.6367 66.5304 63.5979 66.2762C63.5592 66.0218 63.4915 65.8946 63.3947 65.8946H69.8398C69.7237 65.8946 69.6463 66.0316 69.6075 66.3055C69.5688 66.5794 69.6463 67.0488 69.8398 67.714C69.9366 68.0661 70.0818 68.5845 70.2753 69.2692C70.4688 69.9539 70.6817 70.7265 70.914 71.5874C71.1462 72.4481 71.3882 73.3284 71.6398 74.2283C71.8914 75.1281 72.114 75.9595 72.3075 76.7225H72.3366C72.6269 75.94 72.9269 75.0988 73.2365 74.199C73.5656 73.2795 73.885 72.3895 74.1946 71.5287C74.5042 70.6483 74.7752 69.8659 75.0075 69.1812C75.2398 68.4964 75.3946 67.9879 75.472 67.6553C75.6462 67.0293 75.714 66.5794 75.6752 66.3055C75.6365 66.0316 75.5688 65.8946 75.472 65.8946H81.2494C81.1139 65.8946 80.9202 66.0218 80.6687 66.2762C80.4172 66.5304 80.1559 66.9803 79.8848 67.626C79.7494 67.9781 79.5267 68.4964 79.2171 69.1812C78.9075 69.8659 78.5687 70.6288 78.201 71.4699C77.8333 72.3111 77.4655 73.1524 77.0978 73.9936C76.73 74.8347 76.401 75.5976 76.1107 76.2824C75.8397 76.9671 75.6462 77.4952 75.5301 77.867C75.3365 78.493 75.2591 78.9429 75.2978 79.2168C75.3365 79.4907 75.4139 79.6275 75.5301 79.6275H69.0559C69.172 79.6275 69.2495 79.4907 69.2882 79.2168C69.3269 78.9429 69.2495 78.493 69.0559 77.867C68.9979 77.6909 68.8817 77.2898 68.7076 76.6638C68.5527 76.0378 68.3591 75.2847 68.1269 74.4043C67.8947 73.5045 67.6527 72.5752 67.4012 71.6167C67.1496 70.6581 66.9076 69.7485 66.6753 68.8878H66.5883C66.356 69.7094 66.114 70.5897 65.8625 71.5287C65.6109 72.4481 65.3689 73.3479 65.1366 74.2283C64.9044 75.0891 64.6914 75.852 64.498 76.5171C64.3238 77.1627 64.2076 77.6127 64.1495 77.867C63.9754 78.5125 63.9075 78.9722 63.9463 79.2461C63.9851 79.5004 64.0528 79.6275 64.1495 79.6275H57.6754ZM87.6967 79.9209C85.6645 79.9209 84.0677 79.6373 82.9064 79.07C81.7645 78.5027 80.9613 77.6909 80.4968 76.6345C80.0323 75.5586 79.8 74.2772 79.8 72.7904C79.8 70.5798 80.4096 68.829 81.629 67.5379C82.8484 66.2468 84.7161 65.6012 87.2322 65.6012C88.7031 65.6012 89.8935 65.8066 90.8031 66.2174C91.7322 66.6283 92.4387 67.176 92.9224 67.8607C93.4063 68.5454 93.7353 69.3083 93.9095 70.1495C94.1031 70.9711 94.1998 71.8026 94.1998 72.6437V74.0229C94.1998 73.9642 93.9288 73.9056 93.387 73.8468C92.8644 73.7686 91.9741 73.7295 90.716 73.7295H83.9806C83.9806 74.8054 84.2999 75.6173 84.9387 76.165C85.5967 76.6932 86.6612 76.9573 88.1322 76.9573C89.3709 76.9573 90.4741 76.8106 91.4419 76.5171C92.4289 76.2041 93.145 75.9107 93.5902 75.6368V76.5171L93.8805 78.7472C93.5128 79.0015 92.8063 79.2656 91.7612 79.5395C90.716 79.7938 89.3613 79.9209 87.6967 79.9209ZM85.0548 71.2058H90.0773C90.0773 70.7756 89.9805 70.3549 89.787 69.9441C89.6129 69.5333 89.3225 69.2007 88.9161 68.9464C88.5096 68.6725 87.9483 68.5356 87.2322 68.5356C86.1678 68.5356 85.4032 68.7605 84.9387 69.2105C84.4742 69.6604 84.2419 70.1299 84.2419 70.619C84.2419 70.8146 84.2999 70.9613 84.4161 71.0592C84.5322 71.157 84.7452 71.2058 85.0548 71.2058ZM101.208 79.9209C99.8729 79.9209 98.9052 79.6373 98.3051 79.07C97.7051 78.4831 97.4051 77.5343 97.4051 76.2236V68.829H94.7922V65.8946C95.6827 65.8946 96.3794 65.7871 96.8825 65.5719C97.3858 65.3371 97.7439 64.9361 97.9567 64.3687C98.1696 63.8015 98.276 63.0092 98.276 61.9919H101.528V65.8946H106.492C106.357 66.2859 106.221 66.775 106.086 67.3619C105.97 67.9292 105.911 68.4182 105.911 68.829H101.528V74.6097C101.528 75.5096 101.595 76.1258 101.731 76.4584C101.866 76.7911 102.186 76.9573 102.689 76.9573C103.018 76.9573 103.376 76.8399 103.763 76.6052C104.17 76.3704 104.557 76.0868 104.924 75.7542C105.311 75.402 105.631 75.0694 105.882 74.7565V75.6661L106.173 78.5125C105.824 78.8254 105.215 79.1385 104.344 79.4515C103.473 79.7645 102.428 79.9209 101.208 79.9209ZM106.887 79.6275C107.023 79.6275 107.149 79.4907 107.265 79.2168C107.4 78.9429 107.468 78.493 107.468 77.867V67.9487C107.468 67.3227 107.4 66.8825 107.265 66.6283C107.149 66.3543 107.023 66.2077 106.887 66.1881C107.739 66.1881 108.61 66.1294 109.5 66.0121C110.391 65.8751 111.087 65.7382 111.591 65.6012V66.775L111.533 67.2738L111.591 67.3325C111.726 67.1173 111.939 66.8825 112.229 66.6283C112.539 66.3543 112.926 66.1196 113.391 65.924C113.875 65.7088 114.436 65.6012 115.074 65.6012C116.023 65.6012 116.865 65.7382 117.6 66.0121C118.336 66.2663 118.858 66.5304 119.168 66.8043L118.297 70.7364V71.6167C118.007 71.2058 117.61 70.7853 117.107 70.3549C116.623 69.9245 116.081 69.5626 115.481 69.2692C114.9 68.9758 114.3 68.829 113.681 68.829C112.984 68.829 112.462 69.0834 112.113 69.5919C111.765 70.1006 111.591 70.9026 111.591 71.9981V77.867C111.591 78.493 111.649 78.9429 111.765 79.2168C111.9 79.4907 112.036 79.6275 112.171 79.6275H106.887ZM124.598 79.9209C122.856 79.9209 121.462 79.5787 120.417 78.8939C119.391 78.1897 118.879 77.0648 118.879 75.5195C118.879 74.4436 119.149 73.5729 119.692 72.9078C120.233 72.2427 120.969 71.7536 121.898 71.4406C122.846 71.108 123.92 70.9417 125.12 70.9417C126.456 70.9417 127.501 71.0983 128.256 71.4113C129.011 71.7242 129.485 71.9395 129.679 72.0569C129.679 70.8439 129.466 69.9539 129.04 69.3865C128.614 68.8193 127.791 68.5356 126.572 68.5356C125.391 68.5356 124.346 68.653 123.437 68.8878C122.527 69.1224 121.782 69.3963 121.201 69.7094C120.64 70.0223 120.253 70.2864 120.04 70.5017V69.6213L119.75 66.7456C119.885 66.6674 120.243 66.5403 120.824 66.3642C121.404 66.1881 122.198 66.0218 123.204 65.8653C124.211 65.6892 125.411 65.6012 126.804 65.6012C128.72 65.6012 130.182 65.8848 131.188 66.4522C132.195 67 132.882 67.7922 133.249 68.829C133.636 69.8659 133.83 71.1179 133.83 72.5851V77.867C133.83 78.4147 133.888 78.8157 134.004 79.07C134.14 79.3048 134.275 79.4907 134.411 79.6275H129.708V79.0113L129.766 78.4538L129.708 78.3952C129.398 78.7277 128.808 79.07 127.937 79.4221C127.085 79.7548 125.972 79.9209 124.598 79.9209ZM125.962 76.9573C127.162 76.9573 128.082 76.8204 128.72 76.5465C129.379 76.253 129.708 75.8814 129.708 75.4314C129.708 74.9815 129.369 74.6097 128.691 74.3163C128.033 74.0229 127.133 73.8761 125.991 73.8761C124.888 73.8761 124.104 74.0327 123.64 74.3456C123.195 74.6586 122.972 75.0499 122.972 75.5195C122.972 76.1063 123.233 76.4975 123.756 76.6932C124.279 76.8693 125.014 76.9573 125.962 76.9573ZM135.638 79.6275C135.774 79.6275 135.899 79.4907 136.016 79.2168C136.151 78.9429 136.219 78.493 136.219 77.867V67.9487C136.219 67.3227 136.151 66.8825 136.016 66.6283C135.899 66.3543 135.774 66.2077 135.638 66.1881C136.49 66.1881 137.361 66.1294 138.251 66.0121C139.141 65.8751 139.838 65.7382 140.341 65.6012V67.3912L140.284 67.7726L140.341 67.8314C140.399 67.6944 140.583 67.4499 140.893 67.0978C141.203 66.7456 141.648 66.413 142.228 66.1001C142.809 65.7675 143.525 65.6012 144.376 65.6012C146.176 65.6012 147.551 66.1196 148.499 67.1564C149.467 68.1933 149.951 69.8169 149.951 72.0275V77.867C149.951 78.493 150.009 78.9429 150.125 79.2168C150.261 79.4907 150.396 79.6275 150.532 79.6275H145.248C145.383 79.6275 145.509 79.4907 145.625 79.2168C145.76 78.9429 145.828 78.493 145.828 77.867V72.1156C145.828 70.7265 145.616 69.7876 145.189 69.2985C144.764 68.7899 144.221 68.5356 143.564 68.5356C142.731 68.5356 141.987 68.8388 141.329 69.4453C140.671 70.0321 140.341 71.0103 140.341 72.3797V77.867C140.341 78.493 140.399 78.9429 140.516 79.2168C140.651 79.4907 140.787 79.6275 140.922 79.6275H135.638ZM159.03 79.9209C157.308 79.9209 155.855 79.8231 154.675 79.6275C153.495 79.432 152.682 79.2363 152.237 79.0407V78.1604L151.626 75.2847C152.13 75.6563 153.069 76.0281 154.443 76.3997C155.817 76.7713 157.501 76.9573 159.495 76.9573C160.404 76.9573 161.033 76.8693 161.382 76.6932C161.749 76.5171 161.933 76.2138 161.933 75.7835C161.933 75.4509 161.807 75.1966 161.555 75.0206C161.324 74.8445 160.897 74.7076 160.279 74.6097C159.659 74.4924 158.759 74.3555 157.578 74.199C156.088 74.0034 154.907 73.7295 154.037 73.3774C153.165 73.0057 152.547 72.5361 152.179 71.9688C151.83 71.3819 151.656 70.6679 151.656 69.8267C151.656 69.0442 151.84 68.34 152.208 67.714C152.594 67.0684 153.253 66.5598 154.181 66.1881C155.13 65.7968 156.446 65.6012 158.13 65.6012C159.717 65.6012 161.11 65.699 162.31 65.8946C163.51 66.0903 164.372 66.2859 164.894 66.4815V67.3619L165.475 69.9441C165.029 69.6506 164.159 69.3475 162.862 69.0344C161.566 68.7215 159.92 68.5649 157.927 68.5649C157.153 68.5649 156.601 68.6432 156.272 68.7997C155.943 68.9562 155.778 69.23 155.778 69.6213C155.778 69.8757 155.884 70.0908 156.098 70.2669C156.311 70.4234 156.727 70.5701 157.346 70.707C157.985 70.8439 158.933 71.0005 160.191 71.1765C161.836 71.3918 163.075 71.6949 163.907 72.0862C164.739 72.4578 165.301 72.9274 165.591 73.4947C165.881 74.0424 166.027 74.7076 166.027 75.4901C166.027 76.9964 165.465 78.1115 164.343 78.8352C163.22 79.559 161.449 79.9209 159.03 79.9209ZM167.724 79.6275C167.859 79.6275 167.985 79.4907 168.101 79.2168C168.236 78.9429 168.304 78.493 168.304 77.867V68.829H165.691V65.8946H168.595L168.623 65.836C168.566 65.7382 168.45 65.4154 168.275 64.8676C168.101 64.3003 168.014 63.6352 168.014 62.8723C168.014 61.3268 168.45 60.2117 169.321 59.527C170.211 58.8424 171.42 58.5 172.95 58.5C174.188 58.5 175.282 58.5685 176.23 58.7054C177.179 58.8228 177.866 58.95 178.292 59.0869V59.9966L178.873 63.195C178.523 62.9407 178.068 62.6864 177.508 62.4321C176.965 62.1582 176.385 61.9332 175.766 61.7572C175.146 61.5616 174.527 61.4637 173.907 61.4637C173.288 61.4637 172.843 61.6105 172.572 61.9039C172.321 62.1973 172.195 62.6277 172.195 63.195V65.0144C172.195 65.4447 172.233 65.699 172.31 65.7773C172.388 65.8555 172.649 65.8946 173.094 65.8946H177.449C177.314 66.0707 177.179 66.413 177.042 66.9217C176.927 67.4107 176.869 68.0465 176.869 68.829H172.485V77.867C172.485 78.493 172.543 78.9429 172.659 79.2168C172.795 79.4907 172.93 79.6275 173.065 79.6275H167.724ZM184.582 79.9209C182.549 79.9209 180.952 79.6373 179.792 79.07C178.649 78.5027 177.846 77.6909 177.381 76.6345C176.918 75.5586 176.685 74.2772 176.685 72.7904C176.685 70.5798 177.294 68.829 178.514 67.5379C179.733 66.2468 181.601 65.6012 184.117 65.6012C185.588 65.6012 186.778 65.8066 187.688 66.2174C188.617 66.6283 189.324 67.176 189.807 67.8607C190.291 68.5454 190.62 69.3083 190.795 70.1495C190.988 70.9711 191.085 71.8026 191.085 72.6437V74.0229C191.085 73.9642 190.813 73.9056 190.272 73.8468C189.75 73.7686 188.859 73.7295 187.6 73.7295H180.866C180.866 74.8054 181.185 75.6173 181.823 76.165C182.481 76.6932 183.547 76.9573 185.017 76.9573C186.256 76.9573 187.359 76.8106 188.326 76.5171C189.314 76.2041 190.029 75.9107 190.476 75.6368V76.5171L190.766 78.7472C190.398 79.0015 189.692 79.2656 188.647 79.5395C187.601 79.7938 186.246 79.9209 184.582 79.9209ZM181.94 71.2058H186.962C186.962 70.7756 186.865 70.3549 186.672 69.9441C186.497 69.5333 186.207 69.2007 185.801 68.9464C185.394 68.6725 184.833 68.5356 184.117 68.5356C183.053 68.5356 182.288 68.7605 181.823 69.2105C181.359 69.6604 181.127 70.1299 181.127 70.619C181.127 70.8146 181.185 70.9613 181.301 71.0592C181.417 71.157 181.63 71.2058 181.94 71.2058ZM192.374 79.6275C192.51 79.6275 192.635 79.4907 192.751 79.2168C192.887 78.9429 192.954 78.493 192.954 77.867V67.9487C192.954 67.3227 192.887 66.8825 192.751 66.6283C192.635 66.3543 192.51 66.2077 192.374 66.1881C193.226 66.1881 194.096 66.1294 194.987 66.0121C195.878 65.8751 196.574 65.7382 197.077 65.6012V66.775L197.018 67.2738L197.077 67.3325C197.213 67.1173 197.425 66.8825 197.715 66.6283C198.026 66.3543 198.412 66.1196 198.877 65.924C199.361 65.7088 199.922 65.6012 200.56 65.6012C201.51 65.6012 202.351 65.7382 203.087 66.0121C203.822 66.2663 204.344 66.5304 204.654 66.8043L203.783 70.7364V71.6167C203.492 71.2058 203.096 70.7853 202.593 70.3549C202.11 69.9245 201.567 69.5626 200.967 69.2692C200.386 68.9758 199.787 68.829 199.167 68.829C198.47 68.829 197.948 69.0834 197.599 69.5919C197.25 70.1006 197.077 70.9026 197.077 71.9981V77.867C197.077 78.493 197.135 78.9429 197.25 79.2168C197.387 79.4907 197.522 79.6275 197.657 79.6275H192.374Z" fill="#67718E"/>
</g>
</svg>
